<svg width="428" height="428" viewBox="0 0 428 428" fill="none" xmlns="http://www.w3.org/2000/svg">
<path d="M213.844 427.615C331.757 427.615 427.344 332.028 427.344 214.115C427.344 96.2025 331.757 0.615234 213.844 0.615234C95.931 0.615234 0.34375 96.2025 0.34375 214.115C0.34375 332.028 95.931 427.615 213.844 427.615Z" fill="url(#paint0_linear_138_11)"/>
<path d="M213.844 397.541C315.147 397.541 397.27 315.418 397.27 214.115C397.27 112.812 315.147 30.689 213.844 30.689C112.541 30.689 30.418 112.812 30.418 214.115C30.418 315.418 112.541 397.541 213.844 397.541Z" fill="white"/>
<mask id="mask0_138_11" style="mask-type:alpha" maskUnits="userSpaceOnUse" x="30" y="30" width="368" height="368">
<path d="M213.844 397.541C315.147 397.541 397.27 315.418 397.27 214.115C397.27 112.812 315.147 30.689 213.844 30.689C112.541 30.689 30.418 112.812 30.418 214.115C30.418 315.418 112.541 397.541 213.844 397.541Z" fill="white"/>
</mask>
<g mask="url(#mask0_138_11)">
<rect x="27.3438" y="30.6152" width="183" height="367" fill="url(#paint1_linear_138_11)"/>
<path d="M215.344 25.6152H399.344V157.615H223.344C218.925 157.615 215.344 154.034 215.344 149.615V25.6152Z" fill="url(#paint2_linear_138_11)"/>
<path d="M215.344 170.615C215.344 166.197 218.925 162.615 223.344 162.615H399.344V264.615H223.344C218.925 264.615 215.344 261.034 215.344 256.615V170.615Z" fill="url(#paint3_linear_138_11)"/>
<path d="M215.344 277.615C215.344 273.197 218.925 269.615 223.344 269.615H399.344V402.615H215.344V277.615Z" fill="url(#paint4_linear_138_11)"/>
</g>
<g filter="url(#filter0_d_138_11)">
<path d="M138.684 180.455C142.631 180.455 145.551 181.229 147.444 182.775C149.337 184.295 150.284 186.375 150.284 189.015C150.284 190.695 149.871 192.215 149.044 193.575C148.217 194.935 146.977 196.015 145.324 196.815C143.671 197.615 141.631 198.015 139.204 198.015C137.204 198.015 135.271 197.735 133.404 197.175C131.537 196.589 129.964 195.789 128.684 194.775L130.884 190.735C131.924 191.589 133.164 192.269 134.604 192.775C136.071 193.255 137.577 193.495 139.124 193.495C140.964 193.495 142.404 193.122 143.444 192.375C144.511 191.602 145.044 190.549 145.044 189.215C145.044 187.775 144.471 186.695 143.324 185.975C142.204 185.229 140.271 184.855 137.524 184.855H130.764L132.204 169.615H148.644V173.975H136.604L136.004 180.455H138.684Z" fill="white"/>
</g>
<g filter="url(#filter1_d_138_11)">
<path d="M106.262 230.047H105.098V232.615H103.598V226.207H105.098V228.799H106.298L108.194 226.207H109.802L107.474 229.291L109.958 232.615H108.194L106.262 230.047ZM113.661 232.699C113.013 232.699 112.429 232.559 111.909 232.279C111.389 231.999 110.981 231.611 110.685 231.115C110.397 230.611 110.253 230.043 110.253 229.411C110.253 228.779 110.397 228.215 110.685 227.719C110.981 227.223 111.389 226.835 111.909 226.555C112.429 226.275 113.013 226.135 113.661 226.135C114.317 226.135 114.905 226.275 115.425 226.555C115.945 226.835 116.349 227.223 116.637 227.719C116.933 228.215 117.081 228.779 117.081 229.411C117.081 230.043 116.933 230.611 116.637 231.115C116.349 231.611 115.945 231.999 115.425 232.279C114.905 232.559 114.317 232.699 113.661 232.699ZM113.661 231.415C114.213 231.415 114.669 231.231 115.029 230.863C115.389 230.495 115.569 230.011 115.569 229.411C115.569 228.811 115.389 228.327 115.029 227.959C114.669 227.591 114.213 227.407 113.661 227.407C113.109 227.407 112.653 227.591 112.293 227.959C111.941 228.327 111.765 228.811 111.765 229.411C111.765 230.011 111.941 230.495 112.293 230.863C112.653 231.231 113.109 231.415 113.661 231.415ZM124.3 226.207V232.615H122.8V227.479H120.4L120.34 228.751C120.3 229.599 120.22 230.311 120.1 230.887C119.988 231.455 119.792 231.907 119.512 232.243C119.24 232.571 118.864 232.735 118.384 232.735C118.16 232.735 117.884 232.691 117.556 232.603L117.628 231.343C117.74 231.367 117.836 231.379 117.916 231.379C118.22 231.379 118.448 231.259 118.6 231.019C118.752 230.771 118.848 230.479 118.888 230.143C118.936 229.799 118.976 229.311 119.008 228.679L119.116 226.207H124.3ZM126.321 226.207H127.821V230.431L131.361 226.207H132.729V232.615H131.229V228.391L127.701 232.615H126.321V226.207ZM140.182 226.207V232.615H138.682V230.131C138.066 230.427 137.422 230.575 136.75 230.575C135.926 230.575 135.294 230.387 134.854 230.011C134.414 229.627 134.194 229.043 134.194 228.259V226.207H135.694V228.163C135.694 228.571 135.814 228.875 136.054 229.075C136.294 229.275 136.634 229.375 137.074 229.375C137.634 229.375 138.17 229.255 138.682 229.015V226.207H140.182ZM148.199 229.447C148.199 229.551 148.191 229.699 148.175 229.891H143.147C143.235 230.363 143.463 230.739 143.831 231.019C144.207 231.291 144.671 231.427 145.223 231.427C145.927 231.427 146.507 231.195 146.963 230.731L147.767 231.655C147.479 231.999 147.115 232.259 146.675 232.435C146.235 232.611 145.739 232.699 145.187 232.699C144.483 232.699 143.863 232.559 143.327 232.279C142.791 231.999 142.375 231.611 142.079 231.115C141.791 230.611 141.647 230.043 141.647 229.411C141.647 228.787 141.787 228.227 142.067 227.731C142.355 227.227 142.751 226.835 143.255 226.555C143.759 226.275 144.327 226.135 144.959 226.135C145.583 226.135 146.139 226.275 146.627 226.555C147.123 226.827 147.507 227.215 147.779 227.719C148.059 228.215 148.199 228.791 148.199 229.447ZM144.959 227.335C144.479 227.335 144.071 227.479 143.735 227.767C143.407 228.047 143.207 228.423 143.135 228.895H146.771C146.707 228.431 146.511 228.055 146.183 227.767C145.855 227.479 145.447 227.335 144.959 227.335ZM152.756 232.699C152.092 232.699 151.496 232.559 150.968 232.279C150.44 231.999 150.028 231.611 149.732 231.115C149.436 230.611 149.288 230.043 149.288 229.411C149.288 228.779 149.436 228.215 149.732 227.719C150.028 227.223 150.436 226.835 150.956 226.555C151.484 226.275 152.084 226.135 152.756 226.135C153.388 226.135 153.94 226.263 154.412 226.519C154.892 226.775 155.252 227.143 155.492 227.623L154.34 228.295C154.156 227.999 153.924 227.779 153.644 227.635C153.372 227.483 153.072 227.407 152.744 227.407C152.184 227.407 151.72 227.591 151.352 227.959C150.984 228.319 150.8 228.803 150.8 229.411C150.8 230.019 150.98 230.507 151.34 230.875C151.708 231.235 152.176 231.415 152.744 231.415C153.072 231.415 153.372 231.343 153.644 231.199C153.924 231.047 154.156 230.823 154.34 230.527L155.492 231.199C155.244 231.679 154.88 232.051 154.4 232.315C153.928 232.571 153.38 232.699 152.756 232.699ZM161.83 227.479H159.586V232.615H158.086V227.479H155.83V226.207H161.83V227.479ZM167.562 229.279C168.354 229.519 168.75 230.031 168.75 230.815C168.75 231.391 168.534 231.835 168.102 232.147C167.67 232.459 167.03 232.615 166.182 232.615H162.918V226.207H166.05C166.834 226.207 167.446 226.351 167.886 226.639C168.326 226.927 168.546 227.335 168.546 227.863C168.546 228.191 168.458 228.475 168.282 228.715C168.114 228.955 167.874 229.143 167.562 229.279ZM164.346 228.883H165.918C166.694 228.883 167.082 228.615 167.082 228.079C167.082 227.559 166.694 227.299 165.918 227.299H164.346V228.883ZM166.062 231.523C166.886 231.523 167.298 231.255 167.298 230.719C167.298 230.439 167.202 230.231 167.01 230.095C166.818 229.951 166.518 229.879 166.11 229.879H164.346V231.523H166.062ZM173.204 232.699C172.556 232.699 171.972 232.559 171.452 232.279C170.932 231.999 170.524 231.611 170.228 231.115C169.94 230.611 169.796 230.043 169.796 229.411C169.796 228.779 169.94 228.215 170.228 227.719C170.524 227.223 170.932 226.835 171.452 226.555C171.972 226.275 172.556 226.135 173.204 226.135C173.86 226.135 174.448 226.275 174.968 226.555C175.488 226.835 175.892 227.223 176.18 227.719C176.476 228.215 176.624 228.779 176.624 229.411C176.624 230.043 176.476 230.611 176.18 231.115C175.892 231.611 175.488 231.999 174.968 232.279C174.448 232.559 173.86 232.699 173.204 232.699ZM173.204 231.415C173.756 231.415 174.212 231.231 174.572 230.863C174.932 230.495 175.112 230.011 175.112 229.411C175.112 228.811 174.932 228.327 174.572 227.959C174.212 227.591 173.756 227.407 173.204 227.407C172.652 227.407 172.196 227.591 171.836 227.959C171.484 228.327 171.308 228.811 171.308 229.411C171.308 230.011 171.484 230.495 171.836 230.863C172.196 231.231 172.652 231.415 173.204 231.415ZM116.861 241.207V247.615H115.373V242.479H112.217V247.615H110.717V241.207H116.861ZM122.437 241.135C123.061 241.135 123.617 241.271 124.105 241.543C124.601 241.815 124.989 242.199 125.269 242.695C125.549 243.191 125.689 243.763 125.689 244.411C125.689 245.059 125.549 245.635 125.269 246.139C124.989 246.635 124.601 247.019 124.105 247.291C123.617 247.563 123.061 247.699 122.437 247.699C121.573 247.699 120.889 247.411 120.385 246.835V249.943H118.885V241.207H120.313V242.047C120.561 241.743 120.865 241.515 121.225 241.363C121.593 241.211 121.997 241.135 122.437 241.135ZM122.269 246.415C122.821 246.415 123.273 246.231 123.625 245.863C123.985 245.495 124.165 245.011 124.165 244.411C124.165 243.811 123.985 243.327 123.625 242.959C123.273 242.591 122.821 242.407 122.269 242.407C121.909 242.407 121.585 242.491 121.297 242.659C121.009 242.819 120.781 243.051 120.613 243.355C120.445 243.659 120.361 244.011 120.361 244.411C120.361 244.811 120.445 245.163 120.613 245.467C120.781 245.771 121.009 246.007 121.297 246.175C121.585 246.335 121.909 246.415 122.269 246.415ZM130.038 247.699C129.39 247.699 128.806 247.559 128.286 247.279C127.766 246.999 127.358 246.611 127.062 246.115C126.774 245.611 126.63 245.043 126.63 244.411C126.63 243.779 126.774 243.215 127.062 242.719C127.358 242.223 127.766 241.835 128.286 241.555C128.806 241.275 129.39 241.135 130.038 241.135C130.694 241.135 131.282 241.275 131.802 241.555C132.322 241.835 132.726 242.223 133.014 242.719C133.31 243.215 133.458 243.779 133.458 244.411C133.458 245.043 133.31 245.611 133.014 246.115C132.726 246.611 132.322 246.999 131.802 247.279C131.282 247.559 130.694 247.699 130.038 247.699ZM130.038 246.415C130.59 246.415 131.046 246.231 131.406 245.863C131.766 245.495 131.946 245.011 131.946 244.411C131.946 243.811 131.766 243.327 131.406 242.959C131.046 242.591 130.59 242.407 130.038 242.407C129.486 242.407 129.03 242.591 128.67 242.959C128.318 243.327 128.142 243.811 128.142 244.411C128.142 245.011 128.318 245.495 128.67 245.863C129.03 246.231 129.486 246.415 130.038 246.415ZM140.94 244.447C140.94 244.551 140.932 244.699 140.916 244.891H135.888C135.976 245.363 136.204 245.739 136.572 246.019C136.948 246.291 137.412 246.427 137.964 246.427C138.668 246.427 139.248 246.195 139.704 245.731L140.508 246.655C140.22 246.999 139.856 247.259 139.416 247.435C138.976 247.611 138.48 247.699 137.928 247.699C137.224 247.699 136.604 247.559 136.068 247.279C135.532 246.999 135.116 246.611 134.82 246.115C134.532 245.611 134.388 245.043 134.388 244.411C134.388 243.787 134.528 243.227 134.808 242.731C135.096 242.227 135.492 241.835 135.996 241.555C136.5 241.275 137.068 241.135 137.7 241.135C138.324 241.135 138.88 241.275 139.368 241.555C139.864 241.827 140.248 242.215 140.52 242.719C140.8 243.215 140.94 243.791 140.94 244.447ZM137.7 242.335C137.22 242.335 136.812 242.479 136.476 242.767C136.148 243.047 135.948 243.423 135.876 243.895H139.512C139.448 243.431 139.252 243.055 138.924 242.767C138.596 242.479 138.188 242.335 137.7 242.335ZM145.244 245.047H144.08V247.615H142.58V241.207H144.08V243.799H145.28L147.176 241.207H148.784L146.456 244.291L148.94 247.615H147.176L145.244 245.047ZM154.992 242.479H152.748V247.615H151.248V242.479H148.992V241.207H154.992V242.479ZM158.655 247.699C158.007 247.699 157.423 247.559 156.903 247.279C156.383 246.999 155.975 246.611 155.679 246.115C155.391 245.611 155.247 245.043 155.247 244.411C155.247 243.779 155.391 243.215 155.679 242.719C155.975 242.223 156.383 241.835 156.903 241.555C157.423 241.275 158.007 241.135 158.655 241.135C159.311 241.135 159.899 241.275 160.419 241.555C160.939 241.835 161.343 242.223 161.631 242.719C161.927 243.215 162.075 243.779 162.075 244.411C162.075 245.043 161.927 245.611 161.631 246.115C161.343 246.611 160.939 246.999 160.419 247.279C159.899 247.559 159.311 247.699 158.655 247.699ZM158.655 246.415C159.207 246.415 159.663 246.231 160.023 245.863C160.383 245.495 160.563 245.011 160.563 244.411C160.563 243.811 160.383 243.327 160.023 242.959C159.663 242.591 159.207 242.407 158.655 242.407C158.103 242.407 157.647 242.591 157.287 242.959C156.935 243.327 156.759 243.811 156.759 244.411C156.759 245.011 156.935 245.495 157.287 245.863C157.647 246.231 158.103 246.415 158.655 246.415ZM168.201 244.279C168.993 244.519 169.389 245.031 169.389 245.815C169.389 246.391 169.173 246.835 168.741 247.147C168.309 247.459 167.669 247.615 166.821 247.615H163.557V241.207H166.689C167.473 241.207 168.085 241.351 168.525 241.639C168.965 241.927 169.185 242.335 169.185 242.863C169.185 243.191 169.097 243.475 168.921 243.715C168.753 243.955 168.513 244.143 168.201 244.279ZM164.985 243.883H166.557C167.333 243.883 167.721 243.615 167.721 243.079C167.721 242.559 167.333 242.299 166.557 242.299H164.985V243.883ZM166.701 246.523C167.525 246.523 167.937 246.255 167.937 245.719C167.937 245.439 167.841 245.231 167.649 245.095C167.457 244.951 167.157 244.879 166.749 244.879H164.985V246.523H166.701ZM117.91 259.279C118.702 259.519 119.098 260.031 119.098 260.815C119.098 261.391 118.882 261.835 118.45 262.147C118.018 262.459 117.378 262.615 116.53 262.615H113.266V256.207H116.398C117.182 256.207 117.794 256.351 118.234 256.639C118.674 256.927 118.894 257.335 118.894 257.863C118.894 258.191 118.806 258.475 118.63 258.715C118.462 258.955 118.222 259.143 117.91 259.279ZM114.694 258.883H116.266C117.042 258.883 117.43 258.615 117.43 258.079C117.43 257.559 117.042 257.299 116.266 257.299H114.694V258.883ZM116.41 261.523C117.234 261.523 117.646 261.255 117.646 260.719C117.646 260.439 117.55 260.231 117.358 260.095C117.166 259.951 116.866 259.879 116.458 259.879H114.694V261.523H116.41ZM127.564 256.135C128.188 256.135 128.744 256.271 129.232 256.543C129.728 256.815 130.116 257.199 130.396 257.695C130.676 258.191 130.816 258.763 130.816 259.411C130.816 260.059 130.676 260.635 130.396 261.139C130.116 261.635 129.728 262.019 129.232 262.291C128.744 262.563 128.188 262.699 127.564 262.699C126.7 262.699 126.016 262.411 125.512 261.835V264.943H124.012V256.207H125.44V257.047C125.688 256.743 125.992 256.515 126.352 256.363C126.72 256.211 127.124 256.135 127.564 256.135ZM127.396 261.415C127.948 261.415 128.4 261.231 128.752 260.863C129.112 260.495 129.292 260.011 129.292 259.411C129.292 258.811 129.112 258.327 128.752 257.959C128.4 257.591 127.948 257.407 127.396 257.407C127.036 257.407 126.712 257.491 126.424 257.659C126.136 257.819 125.908 258.051 125.74 258.355C125.572 258.659 125.488 259.011 125.488 259.411C125.488 259.811 125.572 260.163 125.74 260.467C125.908 260.771 126.136 261.007 126.424 261.175C126.712 261.335 127.036 261.415 127.396 261.415ZM134.615 256.135C135.559 256.135 136.279 256.363 136.775 256.819C137.279 257.267 137.531 257.947 137.531 258.859V262.615H136.115V261.835C135.931 262.115 135.667 262.331 135.323 262.483C134.987 262.627 134.579 262.699 134.099 262.699C133.619 262.699 133.199 262.619 132.839 262.459C132.479 262.291 132.199 262.063 131.999 261.775C131.807 261.479 131.711 261.147 131.711 260.779C131.711 260.203 131.923 259.743 132.347 259.399C132.779 259.047 133.455 258.871 134.375 258.871H136.031V258.775C136.031 258.327 135.895 257.983 135.623 257.743C135.359 257.503 134.963 257.383 134.435 257.383C134.075 257.383 133.719 257.439 133.367 257.551C133.023 257.663 132.731 257.819 132.491 258.019L131.903 256.927C132.239 256.671 132.643 256.475 133.115 256.339C133.587 256.203 134.087 256.135 134.615 256.135ZM134.411 261.607C134.787 261.607 135.119 261.523 135.407 261.355C135.703 261.179 135.911 260.931 136.031 260.611V259.867H134.483C133.619 259.867 133.187 260.151 133.187 260.719C133.187 260.991 133.295 261.207 133.511 261.367C133.727 261.527 134.027 261.607 134.411 261.607ZM142.855 256.519C143.463 256.519 143.999 256.651 144.463 256.915C144.927 257.171 145.287 257.531 145.543 257.995C145.807 258.459 145.939 258.991 145.939 259.591C145.939 260.207 145.795 260.755 145.507 261.235C145.219 261.707 144.815 262.075 144.295 262.339C143.775 262.603 143.183 262.735 142.519 262.735C141.407 262.735 140.547 262.367 139.939 261.631C139.331 260.895 139.027 259.835 139.027 258.451C139.027 257.163 139.303 256.143 139.855 255.391C140.407 254.639 141.251 254.143 142.387 253.903L145.363 253.267L145.579 254.611L142.879 255.163C142.103 255.323 141.523 255.595 141.139 255.979C140.755 256.363 140.531 256.903 140.467 257.599C140.755 257.255 141.103 256.991 141.511 256.807C141.919 256.615 142.367 256.519 142.855 256.519ZM142.555 261.523C143.107 261.523 143.551 261.347 143.887 260.995C144.231 260.635 144.403 260.179 144.403 259.627C144.403 259.075 144.231 258.631 143.887 258.295C143.551 257.959 143.107 257.791 142.555 257.791C141.995 257.791 141.543 257.959 141.199 258.295C140.855 258.631 140.683 259.075 140.683 259.627C140.683 260.187 140.855 260.643 141.199 260.995C141.551 261.347 142.003 261.523 142.555 261.523ZM150.247 262.699C149.599 262.699 149.015 262.559 148.495 262.279C147.975 261.999 147.567 261.611 147.271 261.115C146.983 260.611 146.839 260.043 146.839 259.411C146.839 258.779 146.983 258.215 147.271 257.719C147.567 257.223 147.975 256.835 148.495 256.555C149.015 256.275 149.599 256.135 150.247 256.135C150.903 256.135 151.491 256.275 152.011 256.555C152.531 256.835 152.935 257.223 153.223 257.719C153.519 258.215 153.667 258.779 153.667 259.411C153.667 260.043 153.519 260.611 153.223 261.115C152.935 261.611 152.531 261.999 152.011 262.279C151.491 262.559 150.903 262.699 150.247 262.699ZM150.247 261.415C150.799 261.415 151.255 261.231 151.615 260.863C151.975 260.495 152.155 260.011 152.155 259.411C152.155 258.811 151.975 258.327 151.615 257.959C151.255 257.591 150.799 257.407 150.247 257.407C149.695 257.407 149.239 257.591 148.879 257.959C148.527 258.327 148.351 258.811 148.351 259.411C148.351 260.011 148.527 260.495 148.879 260.863C149.239 261.231 149.695 261.415 150.247 261.415ZM159.99 257.479H157.746V262.615H156.246V257.479H153.99V256.207H159.99V257.479ZM166.797 259.447C166.797 259.551 166.789 259.699 166.773 259.891H161.745C161.833 260.363 162.061 260.739 162.429 261.019C162.805 261.291 163.269 261.427 163.821 261.427C164.525 261.427 165.105 261.195 165.561 260.731L166.365 261.655C166.077 261.999 165.713 262.259 165.273 262.435C164.833 262.611 164.337 262.699 163.785 262.699C163.081 262.699 162.461 262.559 161.925 262.279C161.389 261.999 160.973 261.611 160.677 261.115C160.389 260.611 160.245 260.043 160.245 259.411C160.245 258.787 160.385 258.227 160.665 257.731C160.953 257.227 161.349 256.835 161.853 256.555C162.357 256.275 162.925 256.135 163.557 256.135C164.181 256.135 164.737 256.275 165.225 256.555C165.721 256.827 166.105 257.215 166.377 257.719C166.657 258.215 166.797 258.791 166.797 259.447ZM163.557 257.335C163.077 257.335 162.669 257.479 162.333 257.767C162.005 258.047 161.805 258.423 161.733 258.895H165.369C165.305 258.431 165.109 258.055 164.781 257.767C164.453 257.479 164.045 257.335 163.557 257.335Z" fill="white"/>
</g>
<g filter="url(#filter2_d_138_11)">
<path d="M257.064 97.2552H252.104V103.615H247.064V97.2552H231.704V93.6552L245.504 75.6152H251.064L238.064 92.8552H247.224V87.2152H252.104V92.8552H257.064V97.2552Z" fill="white"/>
</g>
<g filter="url(#filter3_d_138_11)">
<path d="M237.496 120.207V126.615H236.008V121.479H232.852V126.615H231.352V120.207H237.496ZM243.072 120.135C243.696 120.135 244.252 120.271 244.74 120.543C245.236 120.815 245.624 121.199 245.904 121.695C246.184 122.191 246.324 122.763 246.324 123.411C246.324 124.059 246.184 124.635 245.904 125.139C245.624 125.635 245.236 126.019 244.74 126.291C244.252 126.563 243.696 126.699 243.072 126.699C242.208 126.699 241.524 126.411 241.02 125.835V128.943H239.52V120.207H240.948V121.047C241.196 120.743 241.5 120.515 241.86 120.363C242.228 120.211 242.632 120.135 243.072 120.135ZM242.904 125.415C243.456 125.415 243.908 125.231 244.26 124.863C244.62 124.495 244.8 124.011 244.8 123.411C244.8 122.811 244.62 122.327 244.26 121.959C243.908 121.591 243.456 121.407 242.904 121.407C242.544 121.407 242.22 121.491 241.932 121.659C241.644 121.819 241.416 122.051 241.248 122.355C241.08 122.659 240.996 123.011 240.996 123.411C240.996 123.811 241.08 124.163 241.248 124.467C241.416 124.771 241.644 125.007 241.932 125.175C242.22 125.335 242.544 125.415 242.904 125.415ZM250.673 126.699C250.025 126.699 249.441 126.559 248.921 126.279C248.401 125.999 247.993 125.611 247.697 125.115C247.409 124.611 247.265 124.043 247.265 123.411C247.265 122.779 247.409 122.215 247.697 121.719C247.993 121.223 248.401 120.835 248.921 120.555C249.441 120.275 250.025 120.135 250.673 120.135C251.329 120.135 251.917 120.275 252.437 120.555C252.957 120.835 253.361 121.223 253.649 121.719C253.945 122.215 254.093 122.779 254.093 123.411C254.093 124.043 253.945 124.611 253.649 125.115C253.361 125.611 252.957 125.999 252.437 126.279C251.917 126.559 251.329 126.699 250.673 126.699ZM250.673 125.415C251.225 125.415 251.681 125.231 252.041 124.863C252.401 124.495 252.581 124.011 252.581 123.411C252.581 122.811 252.401 122.327 252.041 121.959C251.681 121.591 251.225 121.407 250.673 121.407C250.121 121.407 249.665 121.591 249.305 121.959C248.953 122.327 248.777 122.811 248.777 123.411C248.777 124.011 248.953 124.495 249.305 124.863C249.665 125.231 250.121 125.415 250.673 125.415ZM258.49 126.699C257.826 126.699 257.23 126.559 256.702 126.279C256.174 125.999 255.762 125.611 255.466 125.115C255.17 124.611 255.022 124.043 255.022 123.411C255.022 122.779 255.17 122.215 255.466 121.719C255.762 121.223 256.17 120.835 256.69 120.555C257.218 120.275 257.818 120.135 258.49 120.135C259.122 120.135 259.674 120.263 260.146 120.519C260.626 120.775 260.986 121.143 261.226 121.623L260.074 122.295C259.89 121.999 259.658 121.779 259.378 121.635C259.106 121.483 258.806 121.407 258.478 121.407C257.918 121.407 257.454 121.591 257.086 121.959C256.718 122.319 256.534 122.803 256.534 123.411C256.534 124.019 256.714 124.507 257.074 124.875C257.442 125.235 257.91 125.415 258.478 125.415C258.806 125.415 259.106 125.343 259.378 125.199C259.658 125.047 259.89 124.823 260.074 124.527L261.226 125.199C260.978 125.679 260.614 126.051 260.134 126.315C259.662 126.571 259.114 126.699 258.49 126.699ZM266.099 120.135C266.723 120.135 267.279 120.271 267.767 120.543C268.263 120.815 268.651 121.199 268.931 121.695C269.211 122.191 269.351 122.763 269.351 123.411C269.351 124.059 269.211 124.635 268.931 125.139C268.651 125.635 268.263 126.019 267.767 126.291C267.279 126.563 266.723 126.699 266.099 126.699C265.235 126.699 264.551 126.411 264.047 125.835V128.943H262.547V120.207H263.975V121.047C264.223 120.743 264.527 120.515 264.887 120.363C265.255 120.211 265.659 120.135 266.099 120.135ZM265.931 125.415C266.483 125.415 266.935 125.231 267.287 124.863C267.647 124.495 267.827 124.011 267.827 123.411C267.827 122.811 267.647 122.327 267.287 121.959C266.935 121.591 266.483 121.407 265.931 121.407C265.571 121.407 265.247 121.491 264.959 121.659C264.671 121.819 264.443 122.051 264.275 122.355C264.107 122.659 264.023 123.011 264.023 123.411C264.023 123.811 264.107 124.163 264.275 124.467C264.443 124.771 264.671 125.007 264.959 125.175C265.247 125.335 265.571 125.415 265.931 125.415ZM273.7 126.699C273.052 126.699 272.468 126.559 271.948 126.279C271.428 125.999 271.02 125.611 270.724 125.115C270.436 124.611 270.292 124.043 270.292 123.411C270.292 122.779 270.436 122.215 270.724 121.719C271.02 121.223 271.428 120.835 271.948 120.555C272.468 120.275 273.052 120.135 273.7 120.135C274.356 120.135 274.944 120.275 275.464 120.555C275.984 120.835 276.388 121.223 276.676 121.719C276.972 122.215 277.12 122.779 277.12 123.411C277.12 124.043 276.972 124.611 276.676 125.115C276.388 125.611 275.984 125.999 275.464 126.279C274.944 126.559 274.356 126.699 273.7 126.699ZM273.7 125.415C274.252 125.415 274.708 125.231 275.068 124.863C275.428 124.495 275.608 124.011 275.608 123.411C275.608 122.811 275.428 122.327 275.068 121.959C274.708 121.591 274.252 121.407 273.7 121.407C273.148 121.407 272.692 121.591 272.332 121.959C271.98 122.327 271.804 122.811 271.804 123.411C271.804 124.011 271.98 124.495 272.332 124.863C272.692 125.231 273.148 125.415 273.7 125.415ZM284.038 120.207V126.615H282.538V124.131C281.922 124.427 281.278 124.575 280.606 124.575C279.782 124.575 279.15 124.387 278.71 124.011C278.27 123.627 278.05 123.043 278.05 122.259V120.207H279.55V122.163C279.55 122.571 279.67 122.875 279.91 123.075C280.15 123.275 280.49 123.375 280.93 123.375C281.49 123.375 282.026 123.255 282.538 123.015V120.207H284.038ZM292.055 123.447C292.055 123.551 292.047 123.699 292.031 123.891H287.003C287.091 124.363 287.319 124.739 287.687 125.019C288.063 125.291 288.527 125.427 289.079 125.427C289.783 125.427 290.363 125.195 290.819 124.731L291.623 125.655C291.335 125.999 290.971 126.259 290.531 126.435C290.091 126.611 289.595 126.699 289.043 126.699C288.339 126.699 287.719 126.559 287.183 126.279C286.647 125.999 286.231 125.611 285.935 125.115C285.647 124.611 285.503 124.043 285.503 123.411C285.503 122.787 285.643 122.227 285.923 121.731C286.211 121.227 286.607 120.835 287.111 120.555C287.615 120.275 288.183 120.135 288.815 120.135C289.439 120.135 289.995 120.275 290.483 120.555C290.979 120.827 291.363 121.215 291.635 121.719C291.915 122.215 292.055 122.791 292.055 123.447ZM288.815 121.335C288.335 121.335 287.927 121.479 287.591 121.767C287.263 122.047 287.063 122.423 286.991 122.895H290.627C290.563 122.431 290.367 122.055 290.039 121.767C289.711 121.479 289.303 121.335 288.815 121.335ZM293.696 120.207H295.196V122.811H298.424V120.207H299.924V126.615H298.424V124.083H295.196V126.615H293.696V120.207ZM305.054 122.319C305.87 122.319 306.494 122.503 306.926 122.871C307.358 123.239 307.574 123.759 307.574 124.431C307.574 125.135 307.334 125.679 306.854 126.063C306.382 126.447 305.71 126.635 304.838 126.627L301.934 126.615V120.207H303.434V122.307L305.054 122.319ZM308.402 120.207H309.902V126.615H308.402V120.207ZM304.706 125.523C305.146 125.531 305.482 125.439 305.714 125.247C305.946 125.055 306.062 124.775 306.062 124.407C306.062 124.047 305.95 123.783 305.726 123.615C305.502 123.447 305.162 123.359 304.706 123.351L303.434 123.339V125.511L304.706 125.523ZM317.918 123.447C317.918 123.551 317.91 123.699 317.894 123.891H312.866C312.954 124.363 313.182 124.739 313.55 125.019C313.926 125.291 314.39 125.427 314.942 125.427C315.646 125.427 316.226 125.195 316.682 124.731L317.486 125.655C317.198 125.999 316.834 126.259 316.394 126.435C315.954 126.611 315.458 126.699 314.906 126.699C314.202 126.699 313.582 126.559 313.046 126.279C312.51 125.999 312.094 125.611 311.798 125.115C311.51 124.611 311.366 124.043 311.366 123.411C311.366 122.787 311.506 122.227 311.786 121.731C312.074 121.227 312.47 120.835 312.974 120.555C313.478 120.275 314.046 120.135 314.678 120.135C315.302 120.135 315.858 120.275 316.346 120.555C316.842 120.827 317.226 121.215 317.498 121.719C317.778 122.215 317.918 122.791 317.918 123.447ZM314.678 121.335C314.198 121.335 313.79 121.479 313.454 121.767C313.126 122.047 312.926 122.423 312.854 122.895H316.49C316.426 122.431 316.23 122.055 315.902 121.767C315.574 121.479 315.166 121.335 314.678 121.335ZM235.18 138.279C235.58 138.391 235.888 138.575 236.104 138.831C236.328 139.079 236.44 139.379 236.44 139.731C236.44 140.123 236.308 140.471 236.044 140.775C235.78 141.071 235.416 141.303 234.952 141.471C234.488 141.639 233.96 141.723 233.368 141.723C232.872 141.723 232.388 141.667 231.916 141.555C231.444 141.435 231.016 141.267 230.632 141.051L231.064 139.935C231.376 140.111 231.728 140.247 232.12 140.343C232.512 140.439 232.904 140.487 233.296 140.487C233.8 140.487 234.192 140.411 234.472 140.259C234.76 140.099 234.904 139.883 234.904 139.611C234.904 139.363 234.792 139.171 234.568 139.035C234.352 138.899 234.044 138.831 233.644 138.831H232.396V137.823H233.524C233.9 137.823 234.192 137.759 234.4 137.631C234.616 137.503 234.724 137.323 234.724 137.091C234.724 136.859 234.596 136.675 234.34 136.539C234.084 136.403 233.732 136.335 233.284 136.335C232.644 136.335 231.968 136.491 231.256 136.803L230.872 135.699C231.712 135.307 232.56 135.111 233.416 135.111C233.96 135.111 234.448 135.187 234.88 135.339C235.312 135.483 235.648 135.691 235.888 135.963C236.136 136.227 236.26 136.531 236.26 136.875C236.26 137.187 236.164 137.467 235.972 137.715C235.78 137.955 235.516 138.143 235.18 138.279ZM240.384 135.135C241.328 135.135 242.048 135.363 242.544 135.819C243.048 136.267 243.3 136.947 243.3 137.859V141.615H241.884V140.835C241.7 141.115 241.436 141.331 241.092 141.483C240.756 141.627 240.348 141.699 239.868 141.699C239.388 141.699 238.968 141.619 238.608 141.459C238.248 141.291 237.968 141.063 237.768 140.775C237.576 140.479 237.48 140.147 237.48 139.779C237.48 139.203 237.692 138.743 238.116 138.399C238.548 138.047 239.224 137.871 240.144 137.871H241.8V137.775C241.8 137.327 241.664 136.983 241.392 136.743C241.128 136.503 240.732 136.383 240.204 136.383C239.844 136.383 239.488 136.439 239.136 136.551C238.792 136.663 238.5 136.819 238.26 137.019L237.672 135.927C238.008 135.671 238.412 135.475 238.884 135.339C239.356 135.203 239.856 135.135 240.384 135.135ZM240.18 140.607C240.556 140.607 240.888 140.523 241.176 140.355C241.472 140.179 241.68 139.931 241.8 139.611V138.867H240.252C239.388 138.867 238.956 139.151 238.956 139.719C238.956 139.991 239.064 140.207 239.28 140.367C239.496 140.527 239.796 140.607 240.18 140.607ZM251.996 140.343V143.043H250.592V141.615H245.648V143.043H244.256V140.343H244.556C244.964 140.327 245.24 140.067 245.384 139.563C245.536 139.051 245.636 138.331 245.684 137.403L245.768 135.207H251.048V140.343H251.996ZM247.052 137.511C247.02 138.247 246.96 138.847 246.872 139.311C246.784 139.775 246.624 140.119 246.392 140.343H249.548V136.479H247.088L247.052 137.511ZM255.724 135.135C256.668 135.135 257.388 135.363 257.884 135.819C258.388 136.267 258.64 136.947 258.64 137.859V141.615H257.224V140.835C257.04 141.115 256.776 141.331 256.432 141.483C256.096 141.627 255.688 141.699 255.208 141.699C254.728 141.699 254.308 141.619 253.948 141.459C253.588 141.291 253.308 141.063 253.108 140.775C252.916 140.479 252.82 140.147 252.82 139.779C252.82 139.203 253.032 138.743 253.456 138.399C253.888 138.047 254.564 137.871 255.484 137.871H257.14V137.775C257.14 137.327 257.004 136.983 256.732 136.743C256.468 136.503 256.072 136.383 255.544 136.383C255.184 136.383 254.828 136.439 254.476 136.551C254.132 136.663 253.84 136.819 253.6 137.019L253.012 135.927C253.348 135.671 253.752 135.475 254.224 135.339C254.696 135.203 255.196 135.135 255.724 135.135ZM255.52 140.607C255.896 140.607 256.228 140.523 256.516 140.355C256.812 140.179 257.02 139.931 257.14 139.611V138.867H255.592C254.728 138.867 254.296 139.151 254.296 139.719C254.296 139.991 254.404 140.207 254.62 140.367C254.836 140.527 255.136 140.607 255.52 140.607ZM265.932 135.207V141.615H264.432V139.131C263.816 139.427 263.172 139.575 262.5 139.575C261.676 139.575 261.044 139.387 260.604 139.011C260.164 138.627 259.944 138.043 259.944 137.259V135.207H261.444V137.163C261.444 137.571 261.564 137.875 261.804 138.075C262.044 138.275 262.384 138.375 262.824 138.375C263.384 138.375 263.92 138.255 264.432 138.015V135.207H265.932ZM267.949 135.207H269.449V139.431L272.989 135.207H274.357V141.615H272.857V137.391L269.329 141.615H267.949V135.207Z" fill="white"/>
</g>
<g filter="url(#filter4_d_138_11)">
<path d="M252.384 204.215V208.615H231.744V205.135L242.864 194.575C244.117 193.375 244.957 192.335 245.384 191.455C245.837 190.549 246.064 189.655 246.064 188.775C246.064 187.469 245.624 186.469 244.744 185.775C243.864 185.082 242.57 184.735 240.864 184.735C238.01 184.735 235.824 185.709 234.304 187.655L230.664 184.855C231.757 183.389 233.224 182.255 235.064 181.455C236.93 180.629 239.01 180.215 241.304 180.215C244.344 180.215 246.77 180.935 248.584 182.375C250.397 183.815 251.304 185.775 251.304 188.255C251.304 189.775 250.984 191.202 250.344 192.535C249.704 193.869 248.477 195.389 246.664 197.095L239.184 204.215H252.384ZM264.145 191.455C268.092 191.455 271.012 192.229 272.905 193.775C274.798 195.295 275.745 197.375 275.745 200.015C275.745 201.695 275.332 203.215 274.505 204.575C273.678 205.935 272.438 207.015 270.785 207.815C269.132 208.615 267.092 209.015 264.665 209.015C262.665 209.015 260.732 208.735 258.865 208.175C256.998 207.589 255.425 206.789 254.145 205.775L256.345 201.735C257.385 202.589 258.625 203.269 260.065 203.775C261.532 204.255 263.038 204.495 264.585 204.495C266.425 204.495 267.865 204.122 268.905 203.375C269.972 202.602 270.505 201.549 270.505 200.215C270.505 198.775 269.932 197.695 268.785 196.975C267.665 196.229 265.732 195.855 262.985 195.855H256.225L257.665 180.615H274.105V184.975H262.065L261.465 191.455H264.145Z" fill="white"/>
</g>
<g filter="url(#filter5_d_138_11)">
<path d="M235.18 228.279C235.58 228.391 235.888 228.575 236.104 228.831C236.328 229.079 236.44 229.379 236.44 229.731C236.44 230.123 236.308 230.471 236.044 230.775C235.78 231.071 235.416 231.303 234.952 231.471C234.488 231.639 233.96 231.723 233.368 231.723C232.872 231.723 232.388 231.667 231.916 231.555C231.444 231.435 231.016 231.267 230.632 231.051L231.064 229.935C231.376 230.111 231.728 230.247 232.12 230.343C232.512 230.439 232.904 230.487 233.296 230.487C233.8 230.487 234.192 230.411 234.472 230.259C234.76 230.099 234.904 229.883 234.904 229.611C234.904 229.363 234.792 229.171 234.568 229.035C234.352 228.899 234.044 228.831 233.644 228.831H232.396V227.823H233.524C233.9 227.823 234.192 227.759 234.4 227.631C234.616 227.503 234.724 227.323 234.724 227.091C234.724 226.859 234.596 226.675 234.34 226.539C234.084 226.403 233.732 226.335 233.284 226.335C232.644 226.335 231.968 226.491 231.256 226.803L230.872 225.699C231.712 225.307 232.56 225.111 233.416 225.111C233.96 225.111 234.448 225.187 234.88 225.339C235.312 225.483 235.648 225.691 235.888 225.963C236.136 226.227 236.26 226.531 236.26 226.875C236.26 227.187 236.164 227.467 235.972 227.715C235.78 227.955 235.516 228.143 235.18 228.279ZM240.384 225.135C241.328 225.135 242.048 225.363 242.544 225.819C243.048 226.267 243.3 226.947 243.3 227.859V231.615H241.884V230.835C241.7 231.115 241.436 231.331 241.092 231.483C240.756 231.627 240.348 231.699 239.868 231.699C239.388 231.699 238.968 231.619 238.608 231.459C238.248 231.291 237.968 231.063 237.768 230.775C237.576 230.479 237.48 230.147 237.48 229.779C237.48 229.203 237.692 228.743 238.116 228.399C238.548 228.047 239.224 227.871 240.144 227.871H241.8V227.775C241.8 227.327 241.664 226.983 241.392 226.743C241.128 226.503 240.732 226.383 240.204 226.383C239.844 226.383 239.488 226.439 239.136 226.551C238.792 226.663 238.5 226.819 238.26 227.019L237.672 225.927C238.008 225.671 238.412 225.475 238.884 225.339C239.356 225.203 239.856 225.135 240.384 225.135ZM240.18 230.607C240.556 230.607 240.888 230.523 241.176 230.355C241.472 230.179 241.68 229.931 241.8 229.611V228.867H240.252C239.388 228.867 238.956 229.151 238.956 229.719C238.956 229.991 239.064 230.207 239.28 230.367C239.496 230.527 239.796 230.607 240.18 230.607ZM251.996 230.343V233.043H250.592V231.615H245.648V233.043H244.256V230.343H244.556C244.964 230.327 245.24 230.067 245.384 229.563C245.536 229.051 245.636 228.331 245.684 227.403L245.768 225.207H251.048V230.343H251.996ZM247.052 227.511C247.02 228.247 246.96 228.847 246.872 229.311C246.784 229.775 246.624 230.119 246.392 230.343H249.548V226.479H247.088L247.052 227.511ZM255.724 225.135C256.668 225.135 257.388 225.363 257.884 225.819C258.388 226.267 258.64 226.947 258.64 227.859V231.615H257.224V230.835C257.04 231.115 256.776 231.331 256.432 231.483C256.096 231.627 255.688 231.699 255.208 231.699C254.728 231.699 254.308 231.619 253.948 231.459C253.588 231.291 253.308 231.063 253.108 230.775C252.916 230.479 252.82 230.147 252.82 229.779C252.82 229.203 253.032 228.743 253.456 228.399C253.888 228.047 254.564 227.871 255.484 227.871H257.14V227.775C257.14 227.327 257.004 226.983 256.732 226.743C256.468 226.503 256.072 226.383 255.544 226.383C255.184 226.383 254.828 226.439 254.476 226.551C254.132 226.663 253.84 226.819 253.6 227.019L253.012 225.927C253.348 225.671 253.752 225.475 254.224 225.339C254.696 225.203 255.196 225.135 255.724 225.135ZM255.52 230.607C255.896 230.607 256.228 230.523 256.516 230.355C256.812 230.179 257.02 229.931 257.14 229.611V228.867H255.592C254.728 228.867 254.296 229.151 254.296 229.719C254.296 229.991 254.404 230.207 254.62 230.367C254.836 230.527 255.136 230.607 255.52 230.607ZM265.932 225.207V231.615H264.432V229.131C263.816 229.427 263.172 229.575 262.5 229.575C261.676 229.575 261.044 229.387 260.604 229.011C260.164 228.627 259.944 228.043 259.944 227.259V225.207H261.444V227.163C261.444 227.571 261.564 227.875 261.804 228.075C262.044 228.275 262.384 228.375 262.824 228.375C263.384 228.375 263.92 228.255 264.432 228.015V225.207H265.932ZM267.949 225.207H269.449V229.431L272.989 225.207H274.357V231.615H272.857V227.391L269.329 231.615H267.949V225.207ZM276.843 229.707C277.123 229.707 277.355 229.799 277.539 229.983C277.723 230.167 277.815 230.407 277.815 230.703C277.815 230.831 277.795 230.967 277.755 231.111C277.723 231.247 277.651 231.455 277.539 231.735L276.927 233.427H275.955L276.435 231.591C276.259 231.519 276.119 231.407 276.015 231.255C275.919 231.095 275.871 230.911 275.871 230.703C275.871 230.407 275.963 230.167 276.147 229.983C276.331 229.799 276.563 229.707 276.843 229.707ZM285.537 231.699C284.873 231.699 284.277 231.559 283.749 231.279C283.221 230.999 282.809 230.611 282.513 230.115C282.217 229.611 282.069 229.043 282.069 228.411C282.069 227.779 282.217 227.215 282.513 226.719C282.809 226.223 283.217 225.835 283.737 225.555C284.265 225.275 284.865 225.135 285.537 225.135C286.169 225.135 286.721 225.263 287.193 225.519C287.673 225.775 288.033 226.143 288.273 226.623L287.121 227.295C286.937 226.999 286.705 226.779 286.425 226.635C286.153 226.483 285.853 226.407 285.525 226.407C284.965 226.407 284.501 226.591 284.133 226.959C283.765 227.319 283.581 227.803 283.581 228.411C283.581 229.019 283.761 229.507 284.121 229.875C284.489 230.235 284.957 230.415 285.525 230.415C285.853 230.415 286.153 230.343 286.425 230.199C286.705 230.047 286.937 229.823 287.121 229.527L288.273 230.199C288.025 230.679 287.661 231.051 287.181 231.315C286.709 231.571 286.161 231.699 285.537 231.699ZM296.293 230.343V233.043H294.889V231.615H289.945V233.043H288.553V230.343H288.853C289.261 230.327 289.537 230.067 289.681 229.563C289.833 229.051 289.933 228.331 289.981 227.403L290.065 225.207H295.345V230.343H296.293ZM291.349 227.511C291.317 228.247 291.257 228.847 291.169 229.311C291.081 229.775 290.921 230.119 290.689 230.343H293.845V226.479H291.385L291.349 227.511ZM303.633 228.447C303.633 228.551 303.625 228.699 303.609 228.891H298.581C298.669 229.363 298.897 229.739 299.265 230.019C299.641 230.291 300.105 230.427 300.657 230.427C301.361 230.427 301.941 230.195 302.397 229.731L303.201 230.655C302.913 230.999 302.549 231.259 302.109 231.435C301.669 231.611 301.173 231.699 300.621 231.699C299.917 231.699 299.297 231.559 298.761 231.279C298.225 230.999 297.809 230.611 297.513 230.115C297.225 229.611 297.081 229.043 297.081 228.411C297.081 227.787 297.221 227.227 297.501 226.731C297.789 226.227 298.185 225.835 298.689 225.555C299.193 225.275 299.761 225.135 300.393 225.135C301.017 225.135 301.573 225.275 302.061 225.555C302.557 225.827 302.941 226.215 303.213 226.719C303.493 227.215 303.633 227.791 303.633 228.447ZM300.393 226.335C299.913 226.335 299.505 226.479 299.169 226.767C298.841 227.047 298.641 227.423 298.569 227.895H302.205C302.141 227.431 301.945 227.055 301.617 226.767C301.289 226.479 300.881 226.335 300.393 226.335ZM311 225.207V231.615H309.5V226.479H307.1L307.04 227.751C307 228.599 306.92 229.311 306.8 229.887C306.688 230.455 306.492 230.907 306.212 231.243C305.94 231.571 305.564 231.735 305.084 231.735C304.86 231.735 304.584 231.691 304.256 231.603L304.328 230.343C304.44 230.367 304.536 230.379 304.616 230.379C304.92 230.379 305.148 230.259 305.3 230.019C305.452 229.771 305.548 229.479 305.588 229.143C305.636 228.799 305.676 228.311 305.708 227.679L305.816 225.207H311ZM315.408 225.135C316.352 225.135 317.072 225.363 317.568 225.819C318.072 226.267 318.324 226.947 318.324 227.859V231.615H316.908V230.835C316.724 231.115 316.46 231.331 316.116 231.483C315.78 231.627 315.372 231.699 314.892 231.699C314.412 231.699 313.992 231.619 313.632 231.459C313.272 231.291 312.992 231.063 312.792 230.775C312.6 230.479 312.504 230.147 312.504 229.779C312.504 229.203 312.716 228.743 313.14 228.399C313.572 228.047 314.248 227.871 315.168 227.871H316.824V227.775C316.824 227.327 316.688 226.983 316.416 226.743C316.152 226.503 315.756 226.383 315.228 226.383C314.868 226.383 314.512 226.439 314.16 226.551C313.816 226.663 313.524 226.819 313.284 227.019L312.696 225.927C313.032 225.671 313.436 225.475 313.908 225.339C314.38 225.203 314.88 225.135 315.408 225.135ZM315.204 230.607C315.58 230.607 315.912 230.523 316.2 230.355C316.496 230.179 316.704 229.931 316.824 229.611V228.867H315.276C314.412 228.867 313.98 229.151 313.98 229.719C313.98 229.991 314.088 230.207 314.304 230.367C314.52 230.527 314.82 230.607 315.204 230.607ZM320.18 225.207H321.68V227.811H324.908V225.207H326.408V231.615H324.908V229.083H321.68V231.615H320.18V225.207ZM331.538 227.319C332.354 227.319 332.978 227.503 333.41 227.871C333.842 228.239 334.058 228.759 334.058 229.431C334.058 230.135 333.818 230.679 333.338 231.063C332.866 231.447 332.194 231.635 331.322 231.627L328.418 231.615V225.207H329.918V227.307L331.538 227.319ZM334.886 225.207H336.386V231.615H334.886V225.207ZM331.19 230.523C331.63 230.531 331.966 230.439 332.198 230.247C332.43 230.055 332.546 229.775 332.546 229.407C332.546 229.047 332.434 228.783 332.21 228.615C331.986 228.447 331.646 228.359 331.19 228.351L329.918 228.339V230.511L331.19 230.523ZM344.403 228.447C344.403 228.551 344.395 228.699 344.379 228.891H339.351C339.439 229.363 339.667 229.739 340.035 230.019C340.411 230.291 340.875 230.427 341.427 230.427C342.131 230.427 342.711 230.195 343.167 229.731L343.971 230.655C343.683 230.999 343.319 231.259 342.879 231.435C342.439 231.611 341.943 231.699 341.391 231.699C340.687 231.699 340.067 231.559 339.531 231.279C338.995 230.999 338.579 230.611 338.283 230.115C337.995 229.611 337.851 229.043 337.851 228.411C337.851 227.787 337.991 227.227 338.271 226.731C338.559 226.227 338.955 225.835 339.459 225.555C339.963 225.275 340.531 225.135 341.163 225.135C341.787 225.135 342.343 225.275 342.831 225.555C343.327 225.827 343.711 226.215 343.983 226.719C344.263 227.215 344.403 227.791 344.403 228.447ZM341.163 226.335C340.683 226.335 340.275 226.479 339.939 226.767C339.611 227.047 339.411 227.423 339.339 227.895H342.975C342.911 227.431 342.715 227.055 342.387 226.767C342.059 226.479 341.651 226.335 341.163 226.335ZM235.996 243.279C236.788 243.519 237.184 244.031 237.184 244.815C237.184 245.391 236.968 245.835 236.536 246.147C236.104 246.459 235.464 246.615 234.616 246.615H231.352V240.207H234.484C235.268 240.207 235.88 240.351 236.32 240.639C236.76 240.927 236.98 241.335 236.98 241.863C236.98 242.191 236.892 242.475 236.716 242.715C236.548 242.955 236.308 243.143 235.996 243.279ZM232.78 242.883H234.352C235.128 242.883 235.516 242.615 235.516 242.079C235.516 241.559 235.128 241.299 234.352 241.299H232.78V242.883ZM234.496 245.523C235.32 245.523 235.732 245.255 235.732 244.719C235.732 244.439 235.636 244.231 235.444 244.095C235.252 243.951 234.952 243.879 234.544 243.879H232.78V245.523H234.496ZM247.174 241.479H244.93V246.615H243.43V241.479H241.174V240.207H247.174V241.479ZM253.981 243.447C253.981 243.551 253.973 243.699 253.957 243.891H248.929C249.017 244.363 249.245 244.739 249.613 245.019C249.989 245.291 250.453 245.427 251.005 245.427C251.709 245.427 252.289 245.195 252.745 244.731L253.549 245.655C253.261 245.999 252.897 246.259 252.457 246.435C252.017 246.611 251.521 246.699 250.969 246.699C250.265 246.699 249.645 246.559 249.109 246.279C248.573 245.999 248.157 245.611 247.861 245.115C247.573 244.611 247.429 244.043 247.429 243.411C247.429 242.787 247.569 242.227 247.849 241.731C248.137 241.227 248.533 240.835 249.037 240.555C249.541 240.275 250.109 240.135 250.741 240.135C251.365 240.135 251.921 240.275 252.409 240.555C252.905 240.827 253.289 241.215 253.561 241.719C253.841 242.215 253.981 242.791 253.981 243.447ZM250.741 241.335C250.261 241.335 249.853 241.479 249.517 241.767C249.189 242.047 248.989 242.423 248.917 242.895H252.553C252.489 242.431 252.293 242.055 251.965 241.767C251.637 241.479 251.229 241.335 250.741 241.335ZM261.057 240.207V246.615H259.557V244.131C258.941 244.427 258.297 244.575 257.625 244.575C256.801 244.575 256.169 244.387 255.729 244.011C255.289 243.627 255.069 243.043 255.069 242.259V240.207H256.569V242.163C256.569 242.571 256.689 242.875 256.929 243.075C257.169 243.275 257.509 243.375 257.949 243.375C258.509 243.375 259.045 243.255 259.557 243.015V240.207H261.057ZM269.074 243.447C269.074 243.551 269.066 243.699 269.05 243.891H264.022C264.11 244.363 264.338 244.739 264.706 245.019C265.082 245.291 265.546 245.427 266.098 245.427C266.802 245.427 267.382 245.195 267.838 244.731L268.642 245.655C268.354 245.999 267.99 246.259 267.55 246.435C267.11 246.611 266.614 246.699 266.062 246.699C265.358 246.699 264.738 246.559 264.202 246.279C263.666 245.999 263.25 245.611 262.954 245.115C262.666 244.611 262.522 244.043 262.522 243.411C262.522 242.787 262.662 242.227 262.942 241.731C263.23 241.227 263.626 240.835 264.13 240.555C264.634 240.275 265.202 240.135 265.834 240.135C266.458 240.135 267.014 240.275 267.502 240.555C267.998 240.827 268.382 241.215 268.654 241.719C268.934 242.215 269.074 242.791 269.074 243.447ZM265.834 241.335C265.354 241.335 264.946 241.479 264.61 241.767C264.282 242.047 264.082 242.423 264.01 242.895H267.646C267.582 242.431 267.386 242.055 267.058 241.767C266.73 241.479 266.322 241.335 265.834 241.335ZM270.715 240.207H272.215V242.811H275.443V240.207H276.943V246.615H275.443V244.083H272.215V246.615H270.715V240.207ZM278.953 240.207H280.453V244.431L283.993 240.207H285.361V246.615H283.861V242.391L280.333 246.615H278.953V240.207ZM293.379 243.447C293.379 243.551 293.371 243.699 293.355 243.891H288.327C288.415 244.363 288.643 244.739 289.011 245.019C289.387 245.291 289.851 245.427 290.403 245.427C291.107 245.427 291.687 245.195 292.143 244.731L292.947 245.655C292.659 245.999 292.295 246.259 291.855 246.435C291.415 246.611 290.919 246.699 290.367 246.699C289.663 246.699 289.043 246.559 288.507 246.279C287.971 245.999 287.555 245.611 287.259 245.115C286.971 244.611 286.827 244.043 286.827 243.411C286.827 242.787 286.967 242.227 287.247 241.731C287.535 241.227 287.931 240.835 288.435 240.555C288.939 240.275 289.507 240.135 290.139 240.135C290.763 240.135 291.319 240.275 291.807 240.555C292.303 240.827 292.687 241.215 292.959 241.719C293.239 242.215 293.379 242.791 293.379 243.447ZM290.139 241.335C289.659 241.335 289.251 241.479 288.915 241.767C288.587 242.047 288.387 242.423 288.315 242.895H291.951C291.887 242.431 291.691 242.055 291.363 241.767C291.035 241.479 290.627 241.335 290.139 241.335ZM304.636 246.615V242.367L302.476 245.943H301.828L299.704 242.355V246.615H298.336V240.207H299.908L302.188 244.215L304.576 240.207H305.98L305.992 246.615H304.636ZM314.004 243.447C314.004 243.551 313.996 243.699 313.98 243.891H308.952C309.04 244.363 309.268 244.739 309.636 245.019C310.012 245.291 310.476 245.427 311.028 245.427C311.732 245.427 312.312 245.195 312.768 244.731L313.572 245.655C313.284 245.999 312.92 246.259 312.48 246.435C312.04 246.611 311.544 246.699 310.992 246.699C310.288 246.699 309.668 246.559 309.132 246.279C308.596 245.999 308.18 245.611 307.884 245.115C307.596 244.611 307.452 244.043 307.452 243.411C307.452 242.787 307.592 242.227 307.872 241.731C308.16 241.227 308.556 240.835 309.06 240.555C309.564 240.275 310.132 240.135 310.764 240.135C311.388 240.135 311.944 240.275 312.432 240.555C312.928 240.827 313.312 241.215 313.584 241.719C313.864 242.215 314.004 242.791 314.004 243.447ZM310.764 241.335C310.284 241.335 309.876 241.479 309.54 241.767C309.212 242.047 309.012 242.423 308.94 242.895H312.576C312.512 242.431 312.316 242.055 311.988 241.767C311.66 241.479 311.252 241.335 310.764 241.335ZM318.561 246.699C317.897 246.699 317.301 246.559 316.773 246.279C316.245 245.999 315.833 245.611 315.537 245.115C315.241 244.611 315.093 244.043 315.093 243.411C315.093 242.779 315.241 242.215 315.537 241.719C315.833 241.223 316.241 240.835 316.761 240.555C317.289 240.275 317.889 240.135 318.561 240.135C319.193 240.135 319.745 240.263 320.217 240.519C320.697 240.775 321.057 241.143 321.297 241.623L320.145 242.295C319.961 241.999 319.729 241.779 319.449 241.635C319.177 241.483 318.877 241.407 318.549 241.407C317.989 241.407 317.525 241.591 317.157 241.959C316.789 242.319 316.605 242.803 316.605 243.411C316.605 244.019 316.785 244.507 317.145 244.875C317.513 245.235 317.981 245.415 318.549 245.415C318.877 245.415 319.177 245.343 319.449 245.199C319.729 245.047 319.961 244.823 320.145 244.527L321.297 245.199C321.049 245.679 320.685 246.051 320.205 246.315C319.733 246.571 319.185 246.699 318.561 246.699ZM327.854 240.207V246.615H326.51V244.683H324.818L323.51 246.615H321.902L323.414 244.479C322.95 244.319 322.594 244.075 322.346 243.747C322.106 243.411 321.986 242.999 321.986 242.511C321.986 241.775 322.246 241.207 322.766 240.807C323.286 240.407 324.002 240.207 324.914 240.207H327.854ZM324.962 241.467C323.994 241.467 323.51 241.831 323.51 242.559C323.51 243.279 323.978 243.639 324.914 243.639H326.51V241.467H324.962ZM336.903 245.343V248.091H335.499V246.615H329.871V240.207H331.371V245.343H334.431V240.207H335.931V245.343H336.903ZM340.626 240.135C341.57 240.135 342.29 240.363 342.786 240.819C343.29 241.267 343.542 241.947 343.542 242.859V246.615H342.126V245.835C341.942 246.115 341.678 246.331 341.334 246.483C340.998 246.627 340.59 246.699 340.11 246.699C339.63 246.699 339.21 246.619 338.85 246.459C338.49 246.291 338.21 246.063 338.01 245.775C337.818 245.479 337.722 245.147 337.722 244.779C337.722 244.203 337.934 243.743 338.358 243.399C338.79 243.047 339.466 242.871 340.386 242.871H342.042V242.775C342.042 242.327 341.906 241.983 341.634 241.743C341.37 241.503 340.974 241.383 340.446 241.383C340.086 241.383 339.73 241.439 339.378 241.551C339.034 241.663 338.742 241.819 338.502 242.019L337.914 240.927C338.25 240.671 338.654 240.475 339.126 240.339C339.598 240.203 340.098 240.135 340.626 240.135ZM340.422 245.607C340.798 245.607 341.13 245.523 341.418 245.355C341.714 245.179 341.922 244.931 342.042 244.611V243.867H340.494C339.63 243.867 339.198 244.151 339.198 244.719C339.198 244.991 339.306 245.207 339.522 245.367C339.738 245.527 340.038 245.607 340.422 245.607Z" fill="white"/>
</g>
<g filter="url(#filter6_d_138_11)">
<path d="M241.784 287.615V315.615H236.584V291.975H230.664V287.615H241.784ZM259.018 316.015C256.778 316.015 254.778 315.455 253.018 314.335C251.258 313.189 249.871 311.535 248.858 309.375C247.845 307.189 247.338 304.602 247.338 301.615C247.338 298.629 247.845 296.055 248.858 293.895C249.871 291.709 251.258 290.055 253.018 288.935C254.778 287.789 256.778 287.215 259.018 287.215C261.258 287.215 263.258 287.789 265.018 288.935C266.805 290.055 268.205 291.709 269.218 293.895C270.231 296.055 270.738 298.629 270.738 301.615C270.738 304.602 270.231 307.189 269.218 309.375C268.205 311.535 266.805 313.189 265.018 314.335C263.258 315.455 261.258 316.015 259.018 316.015ZM259.018 311.495C261.018 311.495 262.591 310.669 263.738 309.015C264.911 307.362 265.498 304.895 265.498 301.615C265.498 298.335 264.911 295.869 263.738 294.215C262.591 292.562 261.018 291.735 259.018 291.735C257.045 291.735 255.471 292.562 254.298 294.215C253.151 295.869 252.578 298.335 252.578 301.615C252.578 304.895 253.151 307.362 254.298 309.015C255.471 310.669 257.045 311.495 259.018 311.495Z" fill="white"/>
</g>
<g filter="url(#filter7_d_138_11)">
<path d="M237.4 332.207L234.4 339.131C234.12 339.827 233.78 340.315 233.38 340.595C232.98 340.883 232.496 341.027 231.928 341.027C231.608 341.027 231.292 340.975 230.98 340.871C230.668 340.767 230.412 340.623 230.212 340.439L230.812 339.335C230.956 339.471 231.124 339.579 231.316 339.659C231.516 339.739 231.716 339.779 231.916 339.779C232.18 339.779 232.396 339.711 232.564 339.575C232.74 339.439 232.9 339.211 233.044 338.891L233.152 338.639L230.356 332.207H231.916L233.932 336.947L235.96 332.207H237.4ZM241.182 338.699C240.518 338.699 239.922 338.559 239.394 338.279C238.866 337.999 238.454 337.611 238.158 337.115C237.862 336.611 237.714 336.043 237.714 335.411C237.714 334.779 237.862 334.215 238.158 333.719C238.454 333.223 238.862 332.835 239.382 332.555C239.91 332.275 240.51 332.135 241.182 332.135C241.814 332.135 242.366 332.263 242.838 332.519C243.318 332.775 243.678 333.143 243.918 333.623L242.766 334.295C242.582 333.999 242.35 333.779 242.07 333.635C241.798 333.483 241.498 333.407 241.17 333.407C240.61 333.407 240.146 333.591 239.778 333.959C239.41 334.319 239.226 334.803 239.226 335.411C239.226 336.019 239.406 336.507 239.766 336.875C240.134 337.235 240.602 337.415 241.17 337.415C241.498 337.415 241.798 337.343 242.07 337.199C242.35 337.047 242.582 336.823 242.766 336.527L243.918 337.199C243.67 337.679 243.306 338.051 242.826 338.315C242.354 338.571 241.806 338.699 241.182 338.699ZM251.382 332.207V338.615H249.894V333.479H246.738V338.615H245.238V332.207H251.382ZM259.406 335.447C259.406 335.551 259.398 335.699 259.382 335.891H254.354C254.442 336.363 254.67 336.739 255.038 337.019C255.414 337.291 255.878 337.427 256.43 337.427C257.134 337.427 257.714 337.195 258.17 336.731L258.974 337.655C258.686 337.999 258.322 338.259 257.882 338.435C257.442 338.611 256.946 338.699 256.394 338.699C255.69 338.699 255.07 338.559 254.534 338.279C253.998 337.999 253.582 337.611 253.286 337.115C252.998 336.611 252.854 336.043 252.854 335.411C252.854 334.787 252.994 334.227 253.274 333.731C253.562 333.227 253.958 332.835 254.462 332.555C254.966 332.275 255.534 332.135 256.166 332.135C256.79 332.135 257.346 332.275 257.834 332.555C258.33 332.827 258.714 333.215 258.986 333.719C259.266 334.215 259.406 334.791 259.406 335.447ZM256.166 333.335C255.686 333.335 255.278 333.479 254.942 333.767C254.614 334.047 254.414 334.423 254.342 334.895H257.978C257.914 334.431 257.718 334.055 257.39 333.767C257.062 333.479 256.654 333.335 256.166 333.335ZM270.491 332.207V338.615H261.047V332.207H262.547V337.343H265.031V332.207H266.531V337.343H268.991V332.207H270.491ZM272.508 332.207H274.008V334.811H277.236V332.207H278.736V338.615H277.236V336.083H274.008V338.615H272.508V332.207ZM283.866 334.319C284.682 334.319 285.306 334.503 285.738 334.871C286.17 335.239 286.386 335.759 286.386 336.431C286.386 337.135 286.146 337.679 285.666 338.063C285.194 338.447 284.522 338.635 283.65 338.627L280.746 338.615V332.207H282.246V334.307L283.866 334.319ZM287.214 332.207H288.714V338.615H287.214V332.207ZM283.518 337.523C283.958 337.531 284.294 337.439 284.526 337.247C284.758 337.055 284.874 336.775 284.874 336.407C284.874 336.047 284.762 335.783 284.538 335.615C284.314 335.447 283.974 335.359 283.518 335.351L282.246 335.339V337.511L283.518 337.523ZM296.731 335.447C296.731 335.551 296.723 335.699 296.707 335.891H291.679C291.767 336.363 291.995 336.739 292.363 337.019C292.739 337.291 293.203 337.427 293.755 337.427C294.459 337.427 295.039 337.195 295.495 336.731L296.299 337.655C296.011 337.999 295.647 338.259 295.207 338.435C294.767 338.611 294.271 338.699 293.719 338.699C293.015 338.699 292.395 338.559 291.859 338.279C291.323 337.999 290.907 337.611 290.611 337.115C290.323 336.611 290.179 336.043 290.179 335.411C290.179 334.787 290.319 334.227 290.599 333.731C290.887 333.227 291.283 332.835 291.787 332.555C292.291 332.275 292.859 332.135 293.491 332.135C294.115 332.135 294.671 332.275 295.159 332.555C295.655 332.827 296.039 333.215 296.311 333.719C296.591 334.215 296.731 334.791 296.731 335.447ZM293.491 333.335C293.011 333.335 292.603 333.479 292.267 333.767C291.939 334.047 291.739 334.423 291.667 334.895H295.303C295.239 334.431 295.043 334.055 294.715 333.767C294.387 333.479 293.979 333.335 293.491 333.335ZM235.18 350.279C235.58 350.391 235.888 350.575 236.104 350.831C236.328 351.079 236.44 351.379 236.44 351.731C236.44 352.123 236.308 352.471 236.044 352.775C235.78 353.071 235.416 353.303 234.952 353.471C234.488 353.639 233.96 353.723 233.368 353.723C232.872 353.723 232.388 353.667 231.916 353.555C231.444 353.435 231.016 353.267 230.632 353.051L231.064 351.935C231.376 352.111 231.728 352.247 232.12 352.343C232.512 352.439 232.904 352.487 233.296 352.487C233.8 352.487 234.192 352.411 234.472 352.259C234.76 352.099 234.904 351.883 234.904 351.611C234.904 351.363 234.792 351.171 234.568 351.035C234.352 350.899 234.044 350.831 233.644 350.831H232.396V349.823H233.524C233.9 349.823 234.192 349.759 234.4 349.631C234.616 349.503 234.724 349.323 234.724 349.091C234.724 348.859 234.596 348.675 234.34 348.539C234.084 348.403 233.732 348.335 233.284 348.335C232.644 348.335 231.968 348.491 231.256 348.803L230.872 347.699C231.712 347.307 232.56 347.111 233.416 347.111C233.96 347.111 234.448 347.187 234.88 347.339C235.312 347.483 235.648 347.691 235.888 347.963C236.136 348.227 236.26 348.531 236.26 348.875C236.26 349.187 236.164 349.467 235.972 349.715C235.78 349.955 235.516 350.143 235.18 350.279ZM240.384 347.135C241.328 347.135 242.048 347.363 242.544 347.819C243.048 348.267 243.3 348.947 243.3 349.859V353.615H241.884V352.835C241.7 353.115 241.436 353.331 241.092 353.483C240.756 353.627 240.348 353.699 239.868 353.699C239.388 353.699 238.968 353.619 238.608 353.459C238.248 353.291 237.968 353.063 237.768 352.775C237.576 352.479 237.48 352.147 237.48 351.779C237.48 351.203 237.692 350.743 238.116 350.399C238.548 350.047 239.224 349.871 240.144 349.871H241.8V349.775C241.8 349.327 241.664 348.983 241.392 348.743C241.128 348.503 240.732 348.383 240.204 348.383C239.844 348.383 239.488 348.439 239.136 348.551C238.792 348.663 238.5 348.819 238.26 349.019L237.672 347.927C238.008 347.671 238.412 347.475 238.884 347.339C239.356 347.203 239.856 347.135 240.384 347.135ZM240.18 352.607C240.556 352.607 240.888 352.523 241.176 352.355C241.472 352.179 241.68 351.931 241.8 351.611V350.867H240.252C239.388 350.867 238.956 351.151 238.956 351.719C238.956 351.991 239.064 352.207 239.28 352.367C239.496 352.527 239.796 352.607 240.18 352.607ZM251.996 352.343V355.043H250.592V353.615H245.648V355.043H244.256V352.343H244.556C244.964 352.327 245.24 352.067 245.384 351.563C245.536 351.051 245.636 350.331 245.684 349.403L245.768 347.207H251.048V352.343H251.996ZM247.052 349.511C247.02 350.247 246.96 350.847 246.872 351.311C246.784 351.775 246.624 352.119 246.392 352.343H249.548V348.479H247.088L247.052 349.511ZM255.724 347.135C256.668 347.135 257.388 347.363 257.884 347.819C258.388 348.267 258.64 348.947 258.64 349.859V353.615H257.224V352.835C257.04 353.115 256.776 353.331 256.432 353.483C256.096 353.627 255.688 353.699 255.208 353.699C254.728 353.699 254.308 353.619 253.948 353.459C253.588 353.291 253.308 353.063 253.108 352.775C252.916 352.479 252.82 352.147 252.82 351.779C252.82 351.203 253.032 350.743 253.456 350.399C253.888 350.047 254.564 349.871 255.484 349.871H257.14V349.775C257.14 349.327 257.004 348.983 256.732 348.743C256.468 348.503 256.072 348.383 255.544 348.383C255.184 348.383 254.828 348.439 254.476 348.551C254.132 348.663 253.84 348.819 253.6 349.019L253.012 347.927C253.348 347.671 253.752 347.475 254.224 347.339C254.696 347.203 255.196 347.135 255.724 347.135ZM255.52 352.607C255.896 352.607 256.228 352.523 256.516 352.355C256.812 352.179 257.02 351.931 257.14 351.611V350.867H255.592C254.728 350.867 254.296 351.151 254.296 351.719C254.296 351.991 254.404 352.207 254.62 352.367C254.836 352.527 255.136 352.607 255.52 352.607ZM265.932 347.207V353.615H264.432V351.131C263.816 351.427 263.172 351.575 262.5 351.575C261.676 351.575 261.044 351.387 260.604 351.011C260.164 350.627 259.944 350.043 259.944 349.259V347.207H261.444V349.163C261.444 349.571 261.564 349.875 261.804 350.075C262.044 350.275 262.384 350.375 262.824 350.375C263.384 350.375 263.92 350.255 264.432 350.015V347.207H265.932ZM267.949 347.207H269.449V351.431L272.989 347.207H274.357V353.615H272.857V349.391L269.329 353.615H267.949V347.207Z" fill="white"/>
</g>
<g style="mix-blend-mode:multiply">
<path d="M213.844 43.3647C119.646 43.3647 43.3423 119.668 43.3423 213.867C43.3423 308.065 119.646 384.368 213.844 384.368C308.043 384.368 384.346 308.065 384.346 213.867C384.346 119.668 308.043 43.3647 213.844 43.3647ZM213.844 358.768C134.061 358.768 69.1909 293.898 69.1909 214.115C69.1909 134.332 134.061 69.462 213.844 69.462C293.627 69.462 358.497 134.332 358.497 214.115C358.497 293.898 293.627 358.768 213.844 358.768Z" fill="url(#paint5_radial_138_11)"/>
</g>
<defs>
<filter id="filter0_d_138_11" x="127.684" y="169.615" width="23.6001" height="31.3999" filterUnits="userSpaceOnUse" color-interpolation-filters="sRGB">
<feFlood flood-opacity="0" result="BackgroundImageFix"/>
<feColorMatrix in="SourceAlpha" type="matrix" values="0 0 0 0 0 0 0 0 0 0 0 0 0 0 0 0 0 0 127 0" result="hardAlpha"/>
<feOffset dy="2"/>
<feGaussianBlur stdDeviation="0.5"/>
<feComposite in2="hardAlpha" operator="out"/>
<feColorMatrix type="matrix" values="0 0 0 0 0 0 0 0 0 0 0 0 0 0 0 0 0 0 0.15 0"/>
<feBlend mode="normal" in2="BackgroundImageFix" result="effect1_dropShadow_138_11"/>
<feBlend mode="normal" in="SourceGraphic" in2="effect1_dropShadow_138_11" result="shape"/>
</filter>
<filter id="filter1_d_138_11" x="102.598" y="226.135" width="75.0261" height="40.8079" filterUnits="userSpaceOnUse" color-interpolation-filters="sRGB">
<feFlood flood-opacity="0" result="BackgroundImageFix"/>
<feColorMatrix in="SourceAlpha" type="matrix" values="0 0 0 0 0 0 0 0 0 0 0 0 0 0 0 0 0 0 127 0" result="hardAlpha"/>
<feOffset dy="1"/>
<feGaussianBlur stdDeviation="0.5"/>
<feComposite in2="hardAlpha" operator="out"/>
<feColorMatrix type="matrix" values="0 0 0 0 0 0 0 0 0 0 0 0 0 0 0 0 0 0 0.15 0"/>
<feBlend mode="normal" in2="BackgroundImageFix" result="effect1_dropShadow_138_11"/>
<feBlend mode="normal" in="SourceGraphic" in2="effect1_dropShadow_138_11" result="shape"/>
</filter>
<filter id="filter2_d_138_11" x="230.704" y="75.6152" width="27.3604" height="31" filterUnits="userSpaceOnUse" color-interpolation-filters="sRGB">
<feFlood flood-opacity="0" result="BackgroundImageFix"/>
<feColorMatrix in="SourceAlpha" type="matrix" values="0 0 0 0 0 0 0 0 0 0 0 0 0 0 0 0 0 0 127 0" result="hardAlpha"/>
<feOffset dy="2"/>
<feGaussianBlur stdDeviation="0.5"/>
<feComposite in2="hardAlpha" operator="out"/>
<feColorMatrix type="matrix" values="0 0 0 0 0 0 0 0 0 0 0 0 0 0 0 0 0 0 0.15 0"/>
<feBlend mode="normal" in2="BackgroundImageFix" result="effect1_dropShadow_138_11"/>
<feBlend mode="normal" in="SourceGraphic" in2="effect1_dropShadow_138_11" result="shape"/>
</filter>
<filter id="filter3_d_138_11" x="229.632" y="120.135" width="89.2861" height="24.908" filterUnits="userSpaceOnUse" color-interpolation-filters="sRGB">
<feFlood flood-opacity="0" result="BackgroundImageFix"/>
<feColorMatrix in="SourceAlpha" type="matrix" values="0 0 0 0 0 0 0 0 0 0 0 0 0 0 0 0 0 0 127 0" result="hardAlpha"/>
<feOffset dy="1"/>
<feGaussianBlur stdDeviation="0.5"/>
<feComposite in2="hardAlpha" operator="out"/>
<feColorMatrix type="matrix" values="0 0 0 0 0 0 0 0 0 0 0 0 0 0 0 0 0 0 0.15 0"/>
<feBlend mode="normal" in2="BackgroundImageFix" result="effect1_dropShadow_138_11"/>
<feBlend mode="normal" in="SourceGraphic" in2="effect1_dropShadow_138_11" result="shape"/>
</filter>
<filter id="filter4_d_138_11" x="229.664" y="180.215" width="47.0815" height="31.7998" filterUnits="userSpaceOnUse" color-interpolation-filters="sRGB">
<feFlood flood-opacity="0" result="BackgroundImageFix"/>
<feColorMatrix in="SourceAlpha" type="matrix" values="0 0 0 0 0 0 0 0 0 0 0 0 0 0 0 0 0 0 127 0" result="hardAlpha"/>
<feOffset dy="2"/>
<feGaussianBlur stdDeviation="0.5"/>
<feComposite in2="hardAlpha" operator="out"/>
<feColorMatrix type="matrix" values="0 0 0 0 0 0 0 0 0 0 0 0 0 0 0 0 0 0 0.15 0"/>
<feBlend mode="normal" in2="BackgroundImageFix" result="effect1_dropShadow_138_11"/>
<feBlend mode="normal" in="SourceGraphic" in2="effect1_dropShadow_138_11" result="shape"/>
</filter>
<filter id="filter5_d_138_11" x="229.632" y="225.111" width="115.771" height="24.98" filterUnits="userSpaceOnUse" color-interpolation-filters="sRGB">
<feFlood flood-opacity="0" result="BackgroundImageFix"/>
<feColorMatrix in="SourceAlpha" type="matrix" values="0 0 0 0 0 0 0 0 0 0 0 0 0 0 0 0 0 0 127 0" result="hardAlpha"/>
<feOffset dy="1"/>
<feGaussianBlur stdDeviation="0.5"/>
<feComposite in2="hardAlpha" operator="out"/>
<feColorMatrix type="matrix" values="0 0 0 0 0 0 0 0 0 0 0 0 0 0 0 0 0 0 0.15 0"/>
<feBlend mode="normal" in2="BackgroundImageFix" result="effect1_dropShadow_138_11"/>
<feBlend mode="normal" in="SourceGraphic" in2="effect1_dropShadow_138_11" result="shape"/>
</filter>
<filter id="filter6_d_138_11" x="229.664" y="287.215" width="42.0747" height="31.7998" filterUnits="userSpaceOnUse" color-interpolation-filters="sRGB">
<feFlood flood-opacity="0" result="BackgroundImageFix"/>
<feColorMatrix in="SourceAlpha" type="matrix" values="0 0 0 0 0 0 0 0 0 0 0 0 0 0 0 0 0 0 127 0" result="hardAlpha"/>
<feOffset dy="2"/>
<feGaussianBlur stdDeviation="0.5"/>
<feComposite in2="hardAlpha" operator="out"/>
<feColorMatrix type="matrix" values="0 0 0 0 0 0 0 0 0 0 0 0 0 0 0 0 0 0 0.15 0"/>
<feBlend mode="normal" in2="BackgroundImageFix" result="effect1_dropShadow_138_11"/>
<feBlend mode="normal" in="SourceGraphic" in2="effect1_dropShadow_138_11" result="shape"/>
</filter>
<filter id="filter7_d_138_11" x="229.212" y="332.135" width="68.5186" height="24.908" filterUnits="userSpaceOnUse" color-interpolation-filters="sRGB">
<feFlood flood-opacity="0" result="BackgroundImageFix"/>
<feColorMatrix in="SourceAlpha" type="matrix" values="0 0 0 0 0 0 0 0 0 0 0 0 0 0 0 0 0 0 127 0" result="hardAlpha"/>
<feOffset dy="1"/>
<feGaussianBlur stdDeviation="0.5"/>
<feComposite in2="hardAlpha" operator="out"/>
<feColorMatrix type="matrix" values="0 0 0 0 0 0 0 0 0 0 0 0 0 0 0 0 0 0 0.15 0"/>
<feBlend mode="normal" in2="BackgroundImageFix" result="effect1_dropShadow_138_11"/>
<feBlend mode="normal" in="SourceGraphic" in2="effect1_dropShadow_138_11" result="shape"/>
</filter>
<linearGradient id="paint0_linear_138_11" x1="82.845" y1="50.06" x2="335.564" y2="366.518" gradientUnits="userSpaceOnUse">
<stop stop-color="#F8F8F8"/>
<stop offset="1" stop-color="#EAEAEA"/>
</linearGradient>
<linearGradient id="paint1_linear_138_11" x1="75.7365" y1="288.523" x2="294.137" y2="202.229" gradientUnits="userSpaceOnUse">
<stop stop-color="#3FA0FF"/>
<stop offset="1" stop-color="#3EDED4"/>
</linearGradient>
<linearGradient id="paint2_linear_138_11" x1="352.875" y1="124.978" x2="313.762" y2="25.027" gradientUnits="userSpaceOnUse">
<stop stop-color="#DF1F2D"/>
<stop offset="1" stop-color="#F14F43"/>
</linearGradient>
<linearGradient id="paint3_linear_138_11" x1="276.69" y1="228.24" x2="357.263" y2="169.773" gradientUnits="userSpaceOnUse">
<stop stop-color="#FCB800"/>
<stop offset="1" stop-color="#FEEA00"/>
</linearGradient>
<linearGradient id="paint4_linear_138_11" x1="240.692" y1="319.569" x2="332.34" y2="366.653" gradientUnits="userSpaceOnUse">
<stop offset="0.0355731" stop-color="#BFE113"/>
<stop offset="1" stop-color="#82D925"/>
</linearGradient>
<radialGradient id="paint5_radial_138_11" cx="0" cy="0" r="1" gradientUnits="userSpaceOnUse" gradientTransform="translate(213.761 213.994) scale(170.53)">
<stop offset="0.8443" stop-color="white"/>
<stop offset="0.8891" stop-color="#FCFCFC"/>
<stop offset="0.9179" stop-color="#F4F4F4"/>
<stop offset="0.9421" stop-color="#E5E5E5"/>
<stop offset="0.9639" stop-color="#D0D0D0"/>
<stop offset="0.9837" stop-color="#B5B5B5"/>
<stop offset="1" stop-color="#999999"/>
</radialGradient>
</defs>
</svg>
