<svg xmlns="http://www.w3.org/2000/svg" style="display:none;">
    <!-- Иконки в заголовке секций -->
    <symbol id="s_calendar" viewBox="0 0 34 34">
        <rect width="34" height="34" rx="8" fill="#21BDEE"/>
        <path fill-rule="evenodd" clip-rule="evenodd" d="M9.99264 9.04844C9.66198 9.14384 9.35172 9.4244 9.183 9.78065C9.02683 10.1104 9.00252 10.3398 9.00189 11.4895L9.00132 12.5437H16.9859H24.9704L24.96 11.4186L24.9497 10.2935L24.8426 10.0516C24.6316 9.57511 24.1321 9.16886 23.612 9.05092C23.459 9.01623 23.1505 9.00103 22.5897 9.0006L21.7865 9L21.7863 9.8062C21.7862 10.2496 21.7714 10.6689 21.7535 10.738C21.7356 10.8071 21.6691 10.9174 21.6057 10.983C21.5111 11.0811 21.4592 11.1052 21.3156 11.1175C21.1719 11.1299 21.1204 11.1177 21.0277 11.0497C20.777 10.8656 20.7775 10.8678 20.7654 9.88342L20.7546 9H16.7825H12.8104L12.8089 9.77076C12.8072 10.6953 12.7908 10.8093 12.6361 10.9749C12.4189 11.2073 12.0362 11.1603 11.8741 10.8814C11.8036 10.7601 11.7997 10.7129 11.7898 9.87708L11.7794 9L10.9617 9.00237C10.4246 9.00397 10.0921 9.01977 9.99264 9.04844ZM9.00894 18.7364L9.01789 23.8306L9.10361 24.066C9.2665 24.5136 9.52512 24.7936 9.90725 24.9363C10.0692 24.9968 10.4182 25 16.8513 25H23.6248L23.8464 24.9181C24.2986 24.7509 24.6889 24.3999 24.8769 23.9914L24.9828 23.7612L24.9914 18.7017L25 13.6423H17H9L9.00894 18.7364ZM13.6684 15.6716C13.7122 15.6957 13.7792 15.7604 13.8174 15.8153C13.8816 15.9078 13.8876 15.9696 13.8975 16.6372C13.9073 17.2943 13.9024 17.3733 13.8427 17.5176C13.7269 17.7976 13.6975 17.8062 12.8557 17.8062C11.8127 17.8062 11.851 17.8478 11.8503 16.7147C11.8496 15.5829 11.8058 15.63 12.8601 15.6287C13.3748 15.6281 13.6121 15.6407 13.6684 15.6716ZM17.6099 15.6716C17.6537 15.6957 17.7208 15.7604 17.759 15.8154C17.8233 15.908 17.8291 15.9691 17.8388 16.6481C17.8503 17.4612 17.8276 17.6057 17.6686 17.7319C17.5801 17.8022 17.5348 17.8062 16.8182 17.8062C15.7509 17.8062 15.7926 17.8506 15.7919 16.7147C15.7911 15.5829 15.7473 15.63 16.8016 15.6287C17.3163 15.6281 17.5537 15.6407 17.6099 15.6716ZM21.622 15.6806C21.8042 15.7814 21.8196 15.8628 21.8196 16.7254C21.8196 17.8614 21.8719 17.8062 20.7961 17.8062C20.0687 17.8062 20.0446 17.8039 19.9411 17.7249C19.7892 17.609 19.7664 17.4756 19.7662 16.6976C19.766 15.9513 19.7864 15.8402 19.9487 15.7036C20.0361 15.63 20.0709 15.6268 20.7824 15.6268C21.3812 15.6268 21.5436 15.6372 21.622 15.6806ZM13.7284 20.5098C13.8798 20.6254 13.903 20.7595 13.9032 21.5194C13.9034 22.2413 13.885 22.3415 13.7229 22.5017C13.6336 22.5899 13.6305 22.5903 12.8891 22.601C12.1857 22.6112 12.1389 22.6078 12.0344 22.5387C11.8567 22.4211 11.8451 22.3516 11.8563 21.4648C11.8663 20.6715 11.8671 20.6637 11.9474 20.5723C11.9919 20.5216 12.0739 20.4655 12.1295 20.4475C12.1852 20.4295 12.5437 20.4178 12.9263 20.4217C13.5932 20.4283 13.6263 20.4319 13.7284 20.5098ZM17.649 20.4908C17.8165 20.6126 17.8284 20.6799 17.8284 21.5059C17.8284 21.9269 17.8168 22.3156 17.8026 22.3699C17.7885 22.4241 17.7289 22.4997 17.6702 22.5381C17.5725 22.6018 17.5006 22.6077 16.8248 22.6078C15.7389 22.608 15.7834 22.6571 15.7979 21.475C15.8079 20.6709 15.8086 20.6637 15.8889 20.5723C15.9335 20.5216 16.0154 20.4655 16.0711 20.4475C16.1267 20.4295 16.4853 20.4178 16.8678 20.4217C17.4698 20.4276 17.5749 20.4369 17.649 20.4908ZM21.524 20.4464C21.5891 20.4658 21.6785 20.5228 21.7227 20.5731L21.803 20.6646V21.5292V22.3938L21.7112 22.492L21.6194 22.5903H20.8113H20.0032L19.9172 22.5038C19.7786 22.3645 19.7598 22.2263 19.7717 21.4322C19.7871 20.3964 19.7679 20.416 20.7763 20.4131C21.1224 20.4121 21.4588 20.4271 21.524 20.4464Z" fill="white"/>
    </symbol>
    <symbol id="s_post" viewBox="0 0 34 34">
        <rect width="34" height="34" rx="8" fill="#A3CD00"/>
        <path fill-rule="evenodd" clip-rule="evenodd" d="M18.1132 9.10411C17.5856 9.1623 16.9801 9.35655 16.5505 9.60542C16.3387 9.72812 16.3193 9.73303 15.9411 9.75944C14.5624 9.85564 13.7175 10.2826 13.3494 11.0693C13.1613 11.4713 13.1197 11.7064 13.1201 12.3656C13.1203 12.7187 13.1407 13.1235 13.1704 13.3639C13.198 13.5864 13.2173 13.7706 13.2134 13.7733C13.2095 13.7759 13.1309 13.8185 13.0387 13.8679C12.7266 14.0352 12.5344 14.3653 12.5344 14.7342C12.5344 14.9773 12.704 16.3029 12.7506 16.4232C12.8519 16.6854 13.1107 16.9307 13.3717 17.0122C13.497 17.0513 13.4994 17.0549 13.5364 17.2559C13.6724 17.9936 14.1144 18.8745 14.6208 19.4166L14.726 19.5292L14.6069 19.9948L14.4878 20.4603L13.0423 20.8252C11.7613 21.1484 11.5595 21.2078 11.2683 21.3469C10.8161 21.5629 10.5392 21.7556 10.2064 22.0855C9.55224 22.7342 9.17397 23.5659 9.10756 24.5016C9.09184 24.723 9.09803 24.795 9.13972 24.8756C9.24889 25.0867 8.57696 25.0703 17.0975 25.0703C25.618 25.0703 24.9461 25.0867 25.0552 24.8756C25.0969 24.795 25.1031 24.723 25.0874 24.5016C24.9978 23.2393 24.3196 22.1391 23.2388 21.5026C22.8504 21.2738 22.5668 21.1819 21.1329 20.8201L19.7072 20.4603L19.6082 20.0853C19.5538 19.879 19.5081 19.6807 19.5066 19.6446C19.5051 19.606 19.5829 19.4897 19.6946 19.3633C20.1892 18.8037 20.6077 17.9577 20.7349 17.2601C20.7723 17.0556 20.7741 17.0529 20.9273 16.9755C21.0124 16.9326 21.1391 16.8408 21.2088 16.7716C21.4282 16.5539 21.467 16.4321 21.5688 15.6417C21.6787 14.7885 21.6827 14.5994 21.5955 14.3663C21.5243 14.1759 21.2899 13.9167 21.1285 13.8499C21.0199 13.8049 21.0205 13.8136 21.0653 13.0446L21.093 12.5673L21.2527 12.3926C21.6294 11.9805 21.7387 11.7299 21.7349 11.2874C21.7329 11.053 21.7162 10.9473 21.6556 10.7856C21.389 10.0733 20.8699 9.53854 20.2103 9.29651C19.6588 9.09417 18.8643 9.02129 18.1132 9.10411Z" fill="white"/>
    </symbol>
    <symbol id="s_kpi" viewBox="0 0 34 34">
        <rect width="34" height="34" rx="8" fill="#A3CD00"/>
        <path fill-rule="evenodd" clip-rule="evenodd" d="M16.1188 9.04145C15.5377 9.09721 14.7922 9.26383 14.1558 9.48024C11.4552 10.3984 9.37097 12.5254 8.47198 15.2807C8.1788 16.1791 8 17.2167 8 18.0193C8 18.2679 8.01095 18.3126 8.09206 18.3954L8.18409 18.4893H9.80001H11.4159L11.5018 18.4017C11.5764 18.3255 11.5908 18.2614 11.6118 17.912C11.625 17.6908 11.661 17.3759 11.6917 17.2121C11.757 16.8637 12.1991 15.6563 12.3734 15.3501C12.8838 14.4538 13.8112 13.6084 14.7612 13.1735C15.1012 13.0178 15.6417 12.8448 16.0451 12.7626C16.5459 12.6605 17.5282 12.6692 18.0352 12.7801C18.791 12.9455 19.4243 13.2154 20.0416 13.6352C20.6389 14.0414 21.3639 14.8428 21.6808 15.447C21.8353 15.7417 22.2528 16.9155 22.3083 17.2113C22.339 17.3755 22.3751 17.6908 22.3884 17.912C22.4093 18.2614 22.4237 18.3255 22.4983 18.4017L22.5842 18.4893H24.2001H25.816L25.908 18.3954C25.9878 18.3141 26.0001 18.2666 26 18.0414C25.9993 16.6665 25.5516 14.9667 24.8605 13.7146C23.0923 10.5115 19.6996 8.6978 16.1188 9.04145ZM16.6912 10.8452L16.6813 12.0793L16.3846 12.1068C15.2813 12.2088 14.1381 12.6887 13.2364 13.4284L12.9791 13.6395L12.1322 12.7752L11.2852 11.9109L11.4663 11.7464C12.2802 11.0067 13.3421 10.3892 14.4231 10.0269C15.0632 9.81241 15.9859 9.63339 16.5412 9.61602L16.7011 9.611L16.6912 10.8452ZM17.8546 9.65138C19.509 9.83468 21.0889 10.5135 22.3532 11.584C22.544 11.7456 22.7001 11.8888 22.7001 11.9023C22.7001 11.9158 22.3222 12.3122 21.8605 12.7831L21.0208 13.6393L20.7636 13.4283C19.8564 12.6841 18.7232 12.2079 17.6188 12.1068L17.3188 12.0793L17.3089 10.8452L17.299 9.611H17.3948C17.4474 9.611 17.6544 9.62918 17.8546 9.65138ZM16.8396 13.3615C16.7495 13.4338 14.4384 16.6476 14.3407 16.8365C14.3148 16.8867 14.3055 16.9733 14.3193 17.0373C14.3583 17.2188 14.462 17.2647 14.8325 17.2647H15.1607L15.142 17.37C15.1019 17.5961 14.3 23.6534 14.3 23.7304C14.3 23.7753 14.3415 23.8544 14.3921 23.9061L14.4841 24H17.0001H19.516L19.608 23.9061C19.6586 23.8544 19.7001 23.7792 19.7001 23.7389C19.7001 23.6686 18.8958 17.5866 18.8579 17.37L18.8394 17.2647H19.1676C19.5381 17.2647 19.6418 17.2188 19.6808 17.0373C19.6946 16.9733 19.6854 16.8873 19.6594 16.8378C19.5629 16.6536 17.3224 13.5271 17.2026 13.4092C17.0564 13.2654 16.973 13.2544 16.8396 13.3615Z" fill="white"/>
    </symbol>

    <!-- Стрелки -->
    <symbol id="chevron" viewBox="0 0 8 9">
        <path d="M3.95501 6.3618C3.85696 6.35159 3.76443 6.31143 3.69 6.2468L0.33 2.63952C0.273974 2.60166 0.22658 2.55239 0.190918 2.49494C0.155256 2.43749 0.132136 2.37316 0.123067 2.30615C0.113998 2.23914 0.119184 2.17098 0.138291 2.10611C0.157399 2.04125 0.189998 1.98116 0.233946 1.92977C0.277893 1.87838 0.332199 1.83685 0.393311 1.80791C0.454423 1.77897 0.520952 1.76327 0.588555 1.76183C0.656158 1.76039 0.723308 1.77325 0.785596 1.79956C0.847884 1.82588 0.903906 1.86505 0.95 1.91453L4 5.2568L7.05 1.91453C7.0961 1.86506 7.15213 1.82588 7.21442 1.79956C7.2767 1.77325 7.34384 1.76039 7.41145 1.76183C7.47905 1.76327 7.54559 1.77897 7.6067 1.80791C7.66781 1.83685 7.72211 1.87838 7.76606 1.92977C7.81 1.98116 7.84261 2.04125 7.86172 2.10611C7.88083 2.17098 7.886 2.23914 7.87694 2.30615C7.86787 2.37316 7.84475 2.43749 7.80908 2.49494C7.77342 2.55239 7.72603 2.60166 7.67 2.63952L4.31 6.2468C4.2615 6.28869 4.20511 6.32045 4.14414 6.3402C4.08317 6.35996 4.01886 6.3673 3.95501 6.3618Z" fill="#333333"/>
    </symbol>
    <symbol id="chevron_acc" viewBox="0 0 16 16">
        <path d="M7.90987 12.5984C7.71377 12.5779 7.52871 12.4976 7.37985 12.3683L0.659848 5.1538C0.547795 5.07808 0.453008 4.97954 0.381684 4.86464C0.31036 4.74974 0.264119 4.62107 0.245981 4.48706C0.227843 4.35304 0.238215 4.21671 0.27643 4.08698C0.314645 3.95726 0.379844 3.83707 0.467739 3.73429C0.555633 3.63151 0.664246 3.54846 0.786469 3.49058C0.908693 3.4327 1.04175 3.40129 1.17696 3.39841C1.31216 3.39553 1.44646 3.42125 1.57104 3.47388C1.69562 3.52651 1.80766 3.60487 1.89985 3.70381L7.99985 10.3883L14.0999 3.70381C14.192 3.60487 14.3041 3.52651 14.4287 3.47388C14.5533 3.42125 14.6875 3.39553 14.8227 3.39841C14.9579 3.40129 15.091 3.4327 15.2133 3.49058C15.3355 3.54846 15.4441 3.63151 15.532 3.73429C15.6199 3.83707 15.6851 3.95726 15.7233 4.08698C15.7615 4.21671 15.7719 4.35304 15.7537 4.48706C15.7356 4.62107 15.6893 4.74974 15.618 4.86464C15.5467 4.97954 15.4519 5.07808 15.3399 5.1538L8.61985 12.3683C8.52285 12.4521 8.41007 12.5157 8.28813 12.5552C8.16619 12.5947 8.03758 12.6094 7.90987 12.5984Z" fill="#333333"/>
    </symbol>


    <symbol id="slider_arrow" viewBox="0 0 36 36">
        <rect width="36" height="36" rx="18" fill="white"/>
        <path d="M21.7253 24.7258C21.3604 25.0914 20.772 25.0914 20.4071 24.7258L14.2179 18.526C13.9274 18.235 13.9274 17.765 14.2179 17.474L20.4071 11.2742C20.772 10.9086 21.3604 10.9086 21.7253 11.2742C22.0903 11.6397 22.0903 12.2291 21.7253 12.5947L16.3331 18.0037L21.7328 23.4127C22.0903 23.7709 22.0903 24.3677 21.7253 24.7258Z" fill="#B4B4BF"/>
    </symbol>

    <!-- Прочие -->
</svg>