<svg xmlns="http://www.w3.org/2000/svg" style="display:none;">
    <!-- Логотипы -->
    <symbol id="logo" viewBox="0 0 150 25">
        <path d="M31.7773 17.9432H34.5066V14.9736H43.656V12.8005H34.5066V11.1554H43.8916V8.8457H31.7773V17.9432Z" fill="#383838"/>
        <path d="M56.3785 9.17107C54.9982 8.78735 53.5682 8.61257 52.1362 8.65256C50.7041 8.61257 49.2741 8.78735 47.8938 9.17107C46.9378 9.42885 46.0829 9.97138 45.4427 10.7266C44.9031 11.5173 44.623 12.4563 44.6413 13.4134C44.606 14.3658 44.8697 15.3054 45.3955 16.1003C46.0189 16.8747 46.8805 17.4215 47.8467 17.6558C49.227 18.0395 50.657 18.2143 52.089 18.1743C53.5211 18.2143 54.9511 18.0395 56.3314 17.6558C57.2874 17.398 58.1423 16.8555 58.7825 16.1003C59.3283 15.3125 59.6089 14.3714 59.5839 13.4134C59.6249 12.4534 59.3427 11.5073 58.7825 10.7266C58.1689 9.96358 57.326 9.41821 56.3785 9.17107ZM56.5671 14.4976C56.3914 14.8148 56.13 15.0761 55.8129 15.2518C55.3573 15.4851 54.8613 15.6291 54.3516 15.676C53.6011 15.7701 52.8454 15.8173 52.089 15.8174C51.1252 15.8327 50.1622 15.7538 49.2137 15.5818C48.6606 15.4866 48.1504 15.2232 47.7524 14.8276C47.4303 14.4304 47.2779 13.9223 47.3282 13.4134C47.301 12.9071 47.451 12.4071 47.7524 11.9993C48.1379 11.5868 48.6541 11.3204 49.2137 11.2451C50.1619 11.0712 51.1251 10.9922 52.089 11.0094C52.8454 11.0096 53.6011 11.0568 54.3516 11.1508C54.8613 11.1977 55.3573 11.3417 55.8129 11.5751C56.14 11.7372 56.405 12.0021 56.5671 12.3293C56.7174 12.6878 56.7974 13.0719 56.8028 13.4606C56.8152 13.8208 56.734 14.1781 56.5671 14.4976Z" fill="#383838"/>
        <path d="M72.1226 14.6859C72.5761 14.4736 72.9543 14.1284 73.2068 13.696C73.4916 13.195 73.6228 12.6212 73.5839 12.0462C73.5858 11.53 73.4898 11.0182 73.301 10.5378C73.1179 10.1479 72.8429 9.80818 72.4997 9.54788C72.1274 9.29962 71.7116 9.12372 71.2741 9.02937C70.7623 8.92019 70.2417 8.85709 69.7186 8.84082H60.6211V17.9383H63.3079V15.2986H66.7489L70.0014 17.9383H73.3953L70.4257 15.5815L69.7186 15.1572H70.3314C70.9543 15.1236 71.5638 14.9632 72.1226 14.6859ZM69.53 13.2717H63.4022V11.1506H69.53C69.8772 11.1152 70.226 11.1982 70.5199 11.3862C70.6336 11.4932 70.719 11.6267 70.7684 11.7748C70.8177 11.9229 70.8295 12.0809 70.8028 12.2347C70.8177 12.3809 70.8001 12.5285 70.7512 12.6671C70.7023 12.8057 70.6233 12.9317 70.5199 13.036C70.2173 13.2025 69.8752 13.2839 69.53 13.2717Z" fill="#383838"/>
        <path d="M83.5344 15.6806L78.1136 8.8457H74.814V17.9432H77.5008V12.051L82.1203 17.9432H84.8495L89.4737 12.051V17.9432H92.1558V8.8457H88.9552L83.5344 15.6806Z" fill="#383838"/>
        <path d="M101.394 8.84082H98.6134L92.7212 17.9383H95.9737L97.0578 16.1942H103.751L104.835 17.9383H108.135L102.196 8.84082H101.394ZM98.2363 14.3088L100.405 10.83L102.573 14.3182L98.2363 14.3088Z" fill="#383838"/>
        <path d="M129.818 8.84082H127.037L121.145 17.9383H124.397L125.482 16.1471H132.175L133.259 17.9383H136.559L130.667 8.84082H129.818ZM126.66 14.3088L128.828 10.8206L130.997 14.3088H126.66Z" fill="#383838"/>
        <path d="M146.222 15.1572H146.788C147.388 15.1112 147.977 14.9679 148.532 14.733C148.999 14.5173 149.38 14.1524 149.616 13.696C149.901 13.195 150.032 12.6212 149.993 12.0462C149.995 11.53 149.899 11.0182 149.71 10.5378C149.529 10.1598 149.273 9.82296 148.956 9.54788C148.584 9.29962 148.168 9.12372 147.731 9.02937C147.219 8.92019 146.698 8.85709 146.175 8.84082H137.078V17.9383H139.764V15.2986H143.205L146.458 17.9383H149.852L146.882 15.5815L146.222 15.1572ZM139.812 13.2717V11.1977H145.939C146.287 11.1623 146.635 11.2454 146.929 11.4334C147.043 11.5403 147.128 11.6738 147.178 11.8219C147.227 11.97 147.239 12.1281 147.212 12.2818C147.227 12.428 147.21 12.5757 147.161 12.7142C147.112 12.8528 147.033 12.9788 146.929 13.0832C146.64 13.2818 146.287 13.3659 145.939 13.3189L139.812 13.2717Z" fill="#383838"/>
        <path d="M107.475 13.2722C107.466 12.6592 107.578 12.0504 107.805 11.481C107.999 10.9262 108.323 10.4255 108.748 10.0197C109.173 9.60676 109.69 9.29992 110.256 9.12411C110.908 8.90009 111.594 8.78852 112.283 8.79415H120.579V11.151H112.566C112.245 11.1211 111.921 11.1557 111.613 11.2528C111.306 11.35 111.02 11.5077 110.775 11.7167C110.561 11.9321 110.396 12.1908 110.29 12.4753C110.184 12.7599 110.141 13.0637 110.162 13.3665C110.141 13.6692 110.184 13.9731 110.29 14.2576C110.396 14.5421 110.561 14.8008 110.775 15.0163C111.293 15.4331 111.951 15.6356 112.613 15.5819H120.626V17.9388H112.283C111.593 17.9482 110.907 17.8365 110.256 17.6088C109.699 17.414 109.186 17.1095 108.748 16.7132C108.323 16.3075 107.999 15.8067 107.805 15.252C107.6 14.6763 107.489 14.0716 107.475 13.4607V13.2722Z" fill="#383838"/>
        <path d="M18.7629 12.0053C15.8404 18.416 12.3994 21.2914 11.8809 21.3385C11.3623 21.3856 7.21426 17.5204 4.57457 11.1568C7.02915 10.6859 9.52292 10.4491 12.0223 10.4498C13.3455 10.455 14.6673 10.5337 15.9818 10.6855C16.3668 9.70334 16.6818 8.69523 16.9246 7.66867C15.2747 7.48012 13.6721 7.38584 12.0223 7.3387C9.23939 7.33029 6.46184 7.5828 3.7261 8.0929C3.31098 6.80216 3.01126 5.47711 2.83049 4.13337C5.77008 3.47331 8.7738 3.14131 11.7866 3.14348C13.8354 3.12815 15.8829 3.25414 17.9144 3.52058C18.0941 2.53968 18.2044 1.54734 18.2444 0.550927C16.1476 0.307899 14.0388 0.182004 11.928 0.173828C7.30854 0.173828 3.06617 0.880888 0.237934 1.96505L0.00224743 2.05932C-0.186302 15.4935 11.5509 24.4496 11.8809 24.8267C12.258 24.4496 23.8066 15.7292 23.8066 2.01218L23.7595 1.96505C23.7123 1.96505 23.5709 1.87077 23.2881 1.7765C22.6282 1.54081 21.9683 1.35226 21.2612 1.16371C21.2612 1.16371 21.0255 4.22764 20.7427 5.78317C20.3045 7.92134 19.6408 10.007 18.7629 12.0053Z" fill="#383838"/>
    </symbol>

    <!-- Соц. сети -->
    <symbol id="facebook" viewBox="0 0 30 30">
        <rect width="30" height="30" rx="5" fill="#446294"/>
        <path d="M17.7998 9.4H19.7998C20.0206 9.4 20.1998 9.2208 20.1998 9V6.3052C20.1998 6.0956 20.0386 5.9212 19.8298 5.9064C19.1934 5.8612 17.9502 5.8 17.0562 5.8C14.5998 5.8 12.9998 7.272 12.9998 9.9472V12.6H10.1998C9.979 12.6 9.7998 12.7792 9.7998 13V15.8C9.7998 16.0208 9.979 16.2 10.1998 16.2H12.9998V23.8C12.9998 24.0208 13.179 24.2 13.3998 24.2H16.1998C16.4206 24.2 16.5998 24.0208 16.5998 23.8V16.2H19.4886C19.6926 16.2 19.8638 16.0468 19.8862 15.844L20.1974 13.044C20.2238 12.8072 20.0382 12.6 19.7998 12.6H16.5998V10.6C16.5998 9.9372 17.137 9.4 17.7998 9.4Z" fill="white"/>
    </symbol>
    <symbol id="vk" viewBox="0 0 30 30">
        <path d="M0 5C0 2.23858 2.23858 0 5 0H25C27.7614 0 30 2.23858 30 5V25C30 27.7614 27.7614 30 25 30H5C2.23858 30 0 27.7614 0 25V5Z" fill="#0077FF"/>
        <path d="M24.8922 19.7569C24.0754 18.32 21.9713 16.5935 21.1027 15.8422C20.865 15.6365 20.8395 15.2806 21.0559 15.0531C22.7136 13.3119 24.0395 11.3112 24.4958 10.1023C24.6972 9.56826 24.2804 9.004 23.6931 9.004H21.9872C21.425 9.004 21.0959 9.20127 20.9391 9.51538C19.5614 12.2749 18.3795 13.4692 17.5523 14.1672C17.0891 14.5581 16.3668 14.2343 16.3668 13.6393C16.3668 12.4931 16.3668 11.0113 16.3668 9.96057C16.3668 9.45096 15.9405 9.03865 15.4146 9.03865L12.2983 9.004C11.906 9.004 11.6819 9.43808 11.9174 9.74242L12.4319 10.4644C12.6255 10.7145 12.7301 11.0189 12.7301 11.3312L12.7273 14.5826C12.7273 15.1482 12.026 15.4245 11.6096 15.0282C10.201 13.6873 8.97876 10.9491 8.53876 9.63979C8.41149 9.2608 8.04832 9.00489 7.6365 9.004L5.95607 9C5.32562 9 4.86472 9.58425 5.03608 10.1725C6.57152 15.4405 9.72193 20.4522 15.3364 20.9956C15.8896 21.0489 16.3668 20.6135 16.3668 20.0745V18.3658C16.3668 17.8757 16.76 17.4545 17.2655 17.4421C17.2832 17.4416 17.3009 17.4416 17.3187 17.4416C18.8036 17.4416 20.4668 19.5543 21.0486 20.5424C21.2159 20.8267 21.5286 21 21.8668 21H24.1272C24.7867 21 25.2099 20.3162 24.8922 19.7569Z" fill="white"/>
    </symbol>
    <symbol id="twitter" viewBox="0 0 30 30">
        <rect width="30" height="30" rx="5" fill="#40ABE2"/>
        <path d="M25.0243 8.77969C24.2852 9.10781 23.493 9.32812 22.6602 9.42812C23.5102 8.91875 24.1633 8.1125 24.4696 7.15312C23.6758 7.62344 22.793 7.96562 21.8571 8.15C21.1071 7.35 20.0383 6.85156 18.8555 6.85156C16.5836 6.85156 14.7415 8.69219 14.7415 10.9641C14.7415 11.2859 14.779 11.6 14.8493 11.9016C11.4305 11.7297 8.40083 10.0922 6.37114 7.60312C6.01646 8.2125 5.81489 8.91875 5.81489 9.67187C5.81489 11.0984 6.53989 12.3578 7.64458 13.0969C6.96958 13.075 6.33521 12.8891 5.78052 12.5812C5.78052 12.5984 5.78052 12.6156 5.78052 12.6328C5.78052 14.6266 7.19927 16.2875 9.07896 16.6672C8.73521 16.7609 8.37114 16.8109 7.99614 16.8109C7.73052 16.8109 7.47271 16.7859 7.22114 16.7359C7.74614 18.3687 9.26489 19.5609 11.0633 19.5937C9.65708 20.6969 7.88364 21.3531 5.95552 21.3531C5.62271 21.3531 5.29614 21.3344 4.97583 21.2953C6.79458 22.4641 8.95708 23.1437 11.2805 23.1437C18.8461 23.1437 22.9836 16.8766 22.9836 11.4422C22.9836 11.2641 22.979 11.0844 22.9727 10.9094C23.7758 10.3297 24.4727 9.60469 25.0243 8.77969Z" fill="white"/>
    </symbol>
    <symbol id="youtube" viewBox="0 0 30 30">
        <rect y="0.826172" width="30" height="30" rx="5" fill="#FF0000"/>
        <path d="M24.4696 11.2324C24.294 10.2703 23.4571 9.56958 22.486 9.35083C21.0326 9.04492 18.3429 8.82617 15.4328 8.82617C12.5245 8.82617 9.79174 9.04492 8.33669 9.35083C7.36723 9.56958 6.52864 10.2258 6.353 11.2324C6.17564 12.3262 6 13.8574 6 15.8262C6 17.7949 6.17564 19.3262 6.39605 20.4199C6.57341 21.3821 7.41028 22.0828 8.37974 22.3015C9.9226 22.6074 12.5675 22.8262 15.4776 22.8262C18.3877 22.8262 21.0326 22.6074 22.5755 22.3015C23.545 22.0828 24.3818 21.4265 24.5592 20.4199C24.7348 19.3262 24.9552 17.7505 25 15.8262C24.9105 13.8574 24.69 12.3262 24.4696 11.2324ZM13.0531 18.8887V12.7637L18.4308 15.8262L13.0531 18.8887Z" fill="white"/>
    </symbol>
    <symbol id="instagram" viewBox="0 0 30 30">
        <rect y="0.826172" width="30" height="30" rx="5" fill="#B93088"/>
        <path d="M15 18.6039C16.5342 18.6039 17.7778 17.3603 17.7778 15.8262C17.7778 14.2921 16.5342 13.0484 15 13.0484C13.4658 13.0484 12.2222 14.2921 12.2222 15.8262C12.2222 17.3603 13.4658 18.6039 15 18.6039Z" fill="white"/>
        <path fill-rule="evenodd" clip-rule="evenodd" d="M11 6.82617C8.23858 6.82617 6 9.06475 6 11.8262V19.8262C6 22.5876 8.23858 24.8262 11 24.8262H19C21.7614 24.8262 24 22.5876 24 19.8262V11.8262C24 9.06475 21.7614 6.82617 19 6.82617H11ZM21 9.82617C21 10.3785 20.5522 10.8262 20 10.8262C19.4478 10.8262 19 10.3785 19 9.82617C19 9.27388 19.4478 8.82617 20 8.82617C20.5522 8.82617 21 9.27388 21 9.82617ZM15 20.8262C17.7612 20.8262 20 18.5876 20 15.8262C20 13.0647 17.7612 10.8262 15 10.8262C12.2388 10.8262 10 13.0647 10 15.8262C10 18.5876 12.2388 20.8262 15 20.8262Z" fill="white"/>
    </symbol>

    <!-- Стрелки -->
    <symbol id="chevron" viewBox="0 0 24 24">
        <path d="M5.27418 8.27465C4.90861 8.6396 4.90861 9.22798 5.27418 9.59293L11.474 15.7821C11.765 16.0726 12.235 16.0726 12.526 15.7821L18.7258 9.59293C19.0914 9.22798 19.0914 8.6396 18.7258 8.27465C18.3602 7.9097 17.7708 7.9097 17.4053 8.27465L11.9963 13.6669L6.58726 8.2672C6.22915 7.9097 5.63229 7.9097 5.27418 8.27465Z" fill="#B4B4BF"></path>
    </symbol>
    <symbol id="slider_arrow" viewBox="0 0 36 36">
        <rect width="36" height="36" rx="18" fill="white"/>
        <path d="M21.7253 24.7258C21.3604 25.0914 20.772 25.0914 20.4071 24.7258L14.2179 18.526C13.9274 18.235 13.9274 17.765 14.2179 17.474L20.4071 11.2742C20.772 10.9086 21.3604 10.9086 21.7253 11.2742C22.0903 11.6397 22.0903 12.2291 21.7253 12.5947L16.3331 18.0037L21.7328 23.4127C22.0903 23.7709 22.0903 24.3677 21.7253 24.7258Z" fill="#B4B4BF"/>
    </symbol>

    <!-- Прочие -->
    <symbol id="eye-show" viewBox="0 0 24 24">
        <path d="M9.28127 12C9.28127 12.6962 9.55783 13.3639 10.0501 13.8562C10.5424 14.3484 11.2101 14.625 11.9063 14.625C12.6025 14.625 13.2701 14.3484 13.7624 13.8562C14.2547 13.3639 14.5313 12.6962 14.5313 12C14.5313 11.3038 14.2547 10.6361 13.7624 10.1438C13.2701 9.65156 12.6025 9.375 11.9063 9.375C11.2101 9.375 10.5424 9.65156 10.0501 10.1438C9.55783 10.6361 9.28127 11.3038 9.28127 12ZM22.0828 11.3953C19.861 6.71484 16.5024 4.35938 12 4.35938C7.49533 4.35938 4.13908 6.71484 1.9172 11.3977C1.82808 11.5864 1.78186 11.7925 1.78186 12.0012C1.78186 12.2099 1.82808 12.416 1.9172 12.6047C4.13908 17.2852 7.49768 19.6406 12 19.6406C16.5047 19.6406 19.861 17.2852 22.0828 12.6023C22.2633 12.2227 22.2633 11.782 22.0828 11.3953ZM11.9063 16.125C9.62815 16.125 7.78127 14.2781 7.78127 12C7.78127 9.72188 9.62815 7.875 11.9063 7.875C14.1844 7.875 16.0313 9.72188 16.0313 12C16.0313 14.2781 14.1844 16.125 11.9063 16.125Z" fill="#383838"/>
    </symbol>
    <symbol id="eye-hide" viewBox="0 0 24 24">
        <path d="M11.9063 14.625C12.6025 14.625 13.2701 14.3484 13.7624 13.8561C14.2547 13.3638 14.5313 12.6961 14.5313 12C14.5313 11.9231 14.5278 11.8469 14.5212 11.7717L11.678 14.6149C11.7532 14.6214 11.8292 14.625 11.9063 14.625ZM20.595 3.88026L19.5938 2.87995C19.5586 2.84481 19.511 2.82507 19.4612 2.82507C19.4115 2.82507 19.3639 2.84481 19.3287 2.87995L16.7665 5.44284C15.3531 4.7205 13.7642 4.35932 12 4.35932C7.49533 4.35932 4.13439 6.70542 1.9172 11.3976C1.82808 11.5863 1.78186 11.7924 1.78186 12.0011C1.78186 12.2098 1.82808 12.4159 1.9172 12.6046C2.80314 14.4707 3.86994 15.9664 5.1176 17.0918L2.63814 19.5703C2.603 19.6054 2.58327 19.6531 2.58327 19.7028C2.58327 19.7525 2.603 19.8002 2.63814 19.8354L3.63869 20.8359C3.67385 20.871 3.72152 20.8908 3.77123 20.8908C3.82093 20.8908 3.86861 20.871 3.90377 20.8359L20.595 4.14557C20.6125 4.12816 20.6263 4.10748 20.6357 4.08472C20.6452 4.06196 20.65 4.03756 20.65 4.01292C20.65 3.98828 20.6452 3.96388 20.6357 3.94112C20.6263 3.91835 20.6125 3.89767 20.595 3.88026ZM7.78127 12C7.7812 11.2875 7.96569 10.5871 8.31674 9.96711C8.6678 9.34712 9.17346 8.82862 9.78446 8.46213C10.3955 8.09564 11.091 7.89366 11.8032 7.87586C12.5155 7.85807 13.2202 8.02506 13.8488 8.36058L12.7092 9.50011C12.2497 9.35296 11.7585 9.33524 11.2895 9.44889C10.8205 9.56254 10.3919 9.80317 10.0507 10.1444C9.70949 10.4856 9.46886 10.9142 9.35521 11.3832C9.24155 11.8521 9.25928 12.3434 9.40643 12.8029L8.2669 13.9425C7.94711 13.345 7.78027 12.6776 7.78127 12V12Z" fill="#383838"/>
        <path d="M22.0828 11.3953C21.2578 9.65779 20.2759 8.24099 19.1369 7.1449L15.7587 10.5234C16.0434 11.2678 16.1066 12.0788 15.9404 12.8583C15.7742 13.6378 15.3859 14.3525 14.8223 14.9161C14.2588 15.4797 13.544 15.868 12.7645 16.0342C11.985 16.2003 11.1741 16.1372 10.4297 15.8524L7.56421 18.7179C8.89358 19.3331 10.3722 19.6406 12 19.6406C16.5047 19.6406 19.8656 17.2945 22.0828 12.6023C22.1719 12.4136 22.2182 12.2075 22.2182 11.9988C22.2182 11.7901 22.1719 11.584 22.0828 11.3953V11.3953Z" fill="#383838"/>
    </symbol>
    <symbol id="check" viewBox="0 0 24 24">
        <path fill-rule="evenodd" clip-rule="evenodd" d="M9.00002 16.2001L4.80002 12.0001L3.40002 13.4001L9.00002 19.0001L21 7.0001L19.6 5.6001L9.00002 16.2001Z" fill="white"/>
    </symbol>
    <symbol id="search" viewBox="0 0 20 20">
        <path d="M17.4697 18.5303C17.7626 18.8232 18.2374 18.8232 18.5303 18.5303C18.8232 18.2374 18.8232 17.7626 18.5303 17.4697L17.4697 18.5303ZM15.5303 14.4697C15.2374 14.1768 14.7626 14.1768 14.4697 14.4697C14.1768 14.7626 14.1768 15.2374 14.4697 15.5303L15.5303 14.4697ZM16.25 9.5C16.25 13.2279 13.2279 16.25 9.5 16.25V17.75C14.0563 17.75 17.75 14.0563 17.75 9.5H16.25ZM9.5 16.25C5.77208 16.25 2.75 13.2279 2.75 9.5H1.25C1.25 14.0563 4.94365 17.75 9.5 17.75V16.25ZM2.75 9.5C2.75 5.77208 5.77208 2.75 9.5 2.75V1.25C4.94365 1.25 1.25 4.94365 1.25 9.5H2.75ZM9.5 2.75C13.2279 2.75 16.25 5.77208 16.25 9.5H17.75C17.75 4.94365 14.0563 1.25 9.5 1.25V2.75ZM18.5303 17.4697L15.5303 14.4697L14.4697 15.5303L17.4697 18.5303L18.5303 17.4697Z" fill="#B4B4BF"/>
    </symbol>
</svg>